<?xml version="1.0" standalone="no"?>
<!DOCTYPE svg PUBLIC "-//W3C//DTD SVG 1.1//EN" "http://www.w3.org/Graphics/SVG/1.1/DTD/svg11.dtd" >
<svg xmlns="http://www.w3.org/2000/svg" xmlns:xlink="http://www.w3.org/1999/xlink" version="1.1">
<metadata>
Created by FontForge 20190801 at Fri Mar 27 17:15:19 2020
 By www-data
Copyright (c) 2020 by atipo. All rights reserved.
</metadata>
<defs>
<font id="wotfardregularwebfont" horiz-adv-x="1155" >
  <font-face 
    font-family="wotfardregularwebfont"
    font-weight="400"
    font-stretch="normal"
    units-per-em="2048"
    panose-1="0 0 5 0 0 0 0 0 0 0"
    ascent="1536"
    descent="-512"
    x-height="983"
    cap-height="1434"
    bbox="-338 -459 4458 2009"
    underline-thickness="102"
    underline-position="-612"
    unicode-range="U+0020-25FC"
  />
<missing-glyph horiz-adv-x="1191" 
d="M164 0v1434h864v-1434h-864zM326 162h540v1110h-540v-1110z" />
    <glyph glyph-name=".notdef" horiz-adv-x="1191" 
d="M164 0v1434h864v-1434h-864zM326 162h540v1110h-540v-1110z" />
    <glyph glyph-name=".null" horiz-adv-x="1228" 
 />
    <glyph glyph-name="nonmarkingreturn" horiz-adv-x="682" 
 />
    <glyph glyph-name="space" unicode=" " horiz-adv-x="600" 
 />
    <glyph glyph-name="exclam" unicode="!" horiz-adv-x="653" 
d="M184 131q0 60 41 101.5t101 41.5t101.5 -41.5t41.5 -101.5t-41.5 -100.5t-101.5 -40.5t-101 40.5t-41 100.5zM219 1434h213l-37 -998h-137z" />
    <glyph glyph-name="quotedbl" unicode="&#x22;" horiz-adv-x="712" 
d="M92 1434h197l-21 -514h-155zM424 1434h197l-21 -514h-156z" />
    <glyph glyph-name="numbersign" unicode="#" horiz-adv-x="1318" 
d="M82 408v165h217l66 308h-183v166h217l74 342h180l-73 -342h278l74 342h180l-74 -342h199v-166h-233l-66 -308h199v-165h-236l-74 -347h-180l74 347h-279l-73 -347h-181l74 347h-180zM479 573h279l65 308h-278z" />
    <glyph glyph-name="dollar" unicode="$" horiz-adv-x="1218" 
d="M123 1059q0 161 119.5 274.5t330.5 128.5l9 135h153l-8 -137q137 -14 295 -80v-196q-157 78 -305 98l-27 -475l33 -6q181 -40 277 -146.5t96 -265.5q0 -80 -30 -153t-85.5 -131.5t-143 -95t-194.5 -40.5l-10 -174h-154l10 182q-176 21 -356 117v193q167 -98 367 -131
l28 495l-57 13q-348 76 -348 395zM319 1059q0 -170 187 -211l33 -6l24 442q-114 -14 -179 -73t-65 -152zM653 150q124 9 183 73t59 166q0 80 -56 143.5t-159 85.5z" />
    <glyph glyph-name="percent" unicode="%" horiz-adv-x="1691" 
d="M113 1143q0 139 94 230t233 91t233.5 -91.5t94.5 -229.5q0 -139 -94.5 -230.5t-233.5 -91.5t-233 91.5t-94 230.5zM272 1143q0 -75 47 -121.5t121 -46.5t121 46.5t47 121.5t-47 121.5t-121 46.5t-121 -46.5t-47 -121.5zM276 0l949 1434h190l-944 -1434h-195zM924 291
q0 139 94 230t233 91t233.5 -91.5t94.5 -229.5q0 -139 -94.5 -230.5t-233.5 -91.5t-233 91.5t-94 230.5zM1083 291q0 -75 47 -121.5t121 -46.5t121 46.5t47 121.5t-47 121.5t-121 46.5t-121 -46.5t-47 -121.5z" />
    <glyph glyph-name="ampersand" unicode="&#x26;" horiz-adv-x="1439" 
d="M143 369q0 124 67 221.5t191 157.5q-34 35 -58.5 64.5t-54.5 75.5t-46.5 99t-16.5 109q0 168 121.5 268t312.5 100q190 0 373 -84v-196q-193 104 -373 104q-114 0 -177.5 -51.5t-63.5 -140.5q0 -102 121 -228l426 -430l342 404v-275l-215 -256l307 -311h-264l-164 168
q-87 -94 -191.5 -146.5t-214.5 -52.5q-101 0 -182 32t-133 87.5t-79.5 127t-27.5 153.5zM336 369q0 -93 63.5 -154t165.5 -61q75 0 148 39t131 104l-307 313q-99 -35 -150 -97t-51 -144z" />
    <glyph glyph-name="quotesingle" unicode="'" horiz-adv-x="380" 
d="M92 1434h197l-21 -514h-155z" />
    <glyph glyph-name="parenleft" unicode="(" horiz-adv-x="802" 
d="M113 557q0 283 106 536t289 443l131 -102q-161 -181 -249.5 -403t-88.5 -474t88.5 -474.5t249.5 -401.5l-131 -103q-183 190 -289 443t-106 536z" />
    <glyph glyph-name="parenright" unicode=")" horiz-adv-x="802" 
d="M164 -319q161 179 249.5 401.5t88.5 474.5t-88.5 474t-249.5 403l131 102q183 -190 289 -443t106 -536t-106 -536t-289 -443z" />
    <glyph glyph-name="asterisk" unicode="*" horiz-adv-x="905" 
d="M92 1114l45 139l238 -84v265h153v-263l240 82l45 -139l-242 -80l160 -205l-119 -90l-161 213l-152 -211l-119 90l154 203z" />
    <glyph glyph-name="plus" unicode="+" horiz-adv-x="935" 
d="M0 508v162h383v399h168v-399h385v-162h-385v-404h-168v404h-383z" />
    <glyph glyph-name="comma" unicode="," horiz-adv-x="600" 
d="M115 -289q51 118 90.5 276.5t48.5 274.5h229q-16 -135 -80.5 -293t-128.5 -258h-159z" />
    <glyph glyph-name="hyphen" unicode="-" horiz-adv-x="759" 
d="M92 504v168h576v-168h-576z" />
    <glyph glyph-name="period" unicode="." horiz-adv-x="571" 
d="M143 131q0 60 41 101.5t101 41.5t101.5 -41.5t41.5 -101.5t-41.5 -100.5t-101.5 -40.5t-101 40.5t-41 100.5z" />
    <glyph glyph-name="slash" unicode="/" horiz-adv-x="1073" 
d="M41 -205l805 1741h186l-805 -1741h-186z" />
    <glyph glyph-name="zero" unicode="0" horiz-adv-x="1380" 
d="M164 717q0 131 18 242t58 205.5t100 160t149 102.5t201 37t201 -37t149.5 -102.5t100.5 -160t58 -205.5t18 -242t-18 -242t-58 -205.5t-100.5 -160.5t-149.5 -103t-201 -37q-139 0 -242 56t-164.5 158.5t-90.5 235.5t-29 298zM360 717q0 -99 9 -179.5t31.5 -155.5
t59 -126t95 -81t135.5 -30t135.5 30t95 81t59 126t31.5 155.5t9 179.5t-9 179.5t-31.5 155.5t-59 125.5t-95 80.5t-135.5 30t-135.5 -30t-95 -80.5t-59 -125.5t-31.5 -155.5t-9 -179.5z" />
    <glyph glyph-name="one" unicode="1" horiz-adv-x="919" 
d="M154 1053v192l362 189h168v-1434h-188v1225z" />
    <glyph glyph-name="two" unicode="2" horiz-adv-x="1236" 
d="M164 0q0 153 34.5 262t98 186t178.5 166l217 168q93 72 140 141t47 144q0 98 -78 157.5t-213 59.5q-214 0 -404 -129v205q61 31 104.5 49.5t126.5 36.5t173 18q224 0 355.5 -113t131.5 -284q0 -222 -254 -410l-258 -192q-75 -55 -127.5 -128.5t-52.5 -152.5h700v-184
h-919z" />
    <glyph glyph-name="three" unicode="3" horiz-adv-x="1259" 
d="M184 74v198q212 -122 416 -122q76 0 137.5 25t98.5 65.5t57 89.5t20 100q0 124 -88.5 194t-210.5 70q-58 0 -116 -20l-92 178l419 397h-641v185h901v-181l-438 -403q18 4 66 4q68 0 137.5 -28.5t129.5 -79.5t98 -133t38 -179q0 -93 -33.5 -176t-96.5 -148t-162.5 -103
t-223.5 -38q-210 0 -416 105z" />
    <glyph glyph-name="four" unicode="4" horiz-adv-x="1316" 
d="M133 360v230l590 844h264v-893h227v-181h-227v-360h-188v360h-666zM309 541h490v712z" />
    <glyph glyph-name="five" unicode="5" horiz-adv-x="1249" 
d="M184 74v198q212 -122 430 -122q130 0 214.5 80.5t84.5 205.5q0 133 -87 212t-232 79q-136 0 -242 -76l-143 99l33 684h819v-185h-649l-23 -405q105 57 258 57q126 0 232 -56.5t171.5 -164.5t65.5 -244q0 -92 -35.5 -176.5t-99 -149t-159 -103t-208.5 -38.5
q-92 0 -179.5 18.5t-131 35.5t-119.5 51z" />
    <glyph glyph-name="six" unicode="6" horiz-adv-x="1345" 
d="M174 666q0 177 25 311.5t72.5 227t120.5 150.5t164 83.5t208 25.5q90 0 185.5 -22t152.5 -51v-185q-71 33 -163.5 55.5t-174.5 22.5q-201 0 -298 -117t-97 -383q56 54 145.5 92.5t208.5 38.5q199 0 323.5 -129t124.5 -344q0 -138 -67 -247.5t-177.5 -167.5t-240.5 -58
q-249 0 -380.5 182.5t-131.5 514.5zM373 592q0 -221 80 -334t235 -113q125 0 206 83t81 214q0 132 -80.5 214.5t-206.5 82.5q-92 0 -175.5 -42t-139.5 -105z" />
    <glyph glyph-name="seven" unicode="7" horiz-adv-x="1255" 
d="M123 1024v410h1010v-183q-138 -151 -210 -254q-302 -429 -302 -997h-201q0 142 22.5 282t57.5 251t84.5 218t95 183.5t97.5 147.5t84.5 108.5t62.5 69.5h-627v-236h-174z" />
    <glyph glyph-name="eight" unicode="8" horiz-adv-x="1306" 
d="M154 408q0 115 60 206t167 152q-178 114 -178 311q0 174 121 280.5t323 106.5q211 0 334 -113t123 -290q0 -101 -57.5 -185.5t-155.5 -144.5q134 -66 198 -153.5t64 -208.5q0 -171 -138 -285.5t-356 -114.5q-241 0 -373 118.5t-132 320.5zM346 408q0 -123 83 -193
t230 -70q137 0 217 65.5t80 158.5q0 78 -52 137.5t-171 107.5l-168 68q-219 -87 -219 -274zM391 1077q0 -71 48.5 -126t121.5 -85l162 -65q192 110 192 260q0 98 -67.5 163.5t-200.5 65.5q-126 0 -191 -63t-65 -150z" />
    <glyph glyph-name="nine" unicode="9" horiz-adv-x="1345" 
d="M174 991q0 138 67 247.5t177.5 167.5t240.5 58q249 0 380.5 -182t131.5 -514q0 -221 -38 -376t-114.5 -247.5t-183 -134t-253.5 -41.5q-89 0 -184.5 22.5t-153.5 51.5v184q70 -33 163 -55t175 -22q201 0 298 116.5t97 382.5q-56 -54 -145.5 -92.5t-208.5 -38.5
q-199 0 -324 129.5t-125 343.5zM371 991q0 -133 80.5 -215t205.5 -82q92 0 176 42.5t140 105.5q0 221 -80 333.5t-236 112.5q-125 0 -205.5 -83t-80.5 -214z" />
    <glyph glyph-name="colon" unicode=":" horiz-adv-x="571" 
d="M143 131q0 60 41 101.5t101 41.5t101.5 -41.5t41.5 -101.5t-41.5 -100.5t-101.5 -40.5t-101 40.5t-41 100.5zM143 807q0 60 41 101.5t101 41.5t101.5 -41.5t41.5 -101.5t-41.5 -100.5t-101.5 -40.5t-101 40.5t-41 100.5z" />
    <glyph glyph-name="semicolon" unicode=";" horiz-adv-x="600" 
d="M33 -289q51 118 90.5 276.5t48.5 274.5h229q-16 -135 -80 -293.5t-128 -257.5h-160zM143 807q0 60 41 101.5t101 41.5t101.5 -41.5t41.5 -101.5t-41.5 -100.5t-101.5 -40.5t-101 40.5t-41 100.5z" />
    <glyph glyph-name="less" unicode="&#x3c;" horiz-adv-x="1017" 
d="M41 508v180l936 430v-186l-741 -334l741 -334v-186z" />
    <glyph glyph-name="equal" unicode="=" horiz-adv-x="935" 
d="M0 303v162h936v-162h-936zM0 713v161h936v-161h-936z" />
    <glyph glyph-name="greater" unicode="&#x3e;" horiz-adv-x="1017" 
d="M41 78v186l741 334l-741 334v186l936 -430v-180z" />
    <glyph glyph-name="question" unicode="?" horiz-adv-x="995" 
d="M72 1190v190q176 84 372 84q223 0 351.5 -113t128.5 -280q0 -116 -54.5 -199.5t-154.5 -146.5l-115 -74q-48 -31 -67 -72.5t-19 -103.5v-39h-176v72q0 102 39 170.5t131 128.5l110 72q109 71 109 192q0 92 -76.5 154.5t-206.5 62.5q-181 0 -372 -98zM285 131
q0 60 40.5 101.5t100.5 41.5t101.5 -41.5t41.5 -101.5t-41.5 -100.5t-101.5 -40.5t-100.5 40.5t-40.5 100.5z" />
    <glyph glyph-name="at" unicode="@" horiz-adv-x="1712" 
d="M92 438q0 117 29 224t81 195t125.5 159.5t161.5 120.5t189.5 75.5t208.5 26.5q205 0 373 -87t264 -240.5t96 -342.5q0 -228 -107.5 -380t-267.5 -152q-143 0 -194 110q-132 -118 -293 -118q-136 0 -217 91t-86 234q0 137 52 252t149.5 184.5t220.5 69.5q72 0 131.5 -30.5
t89.5 -75.5l14 80h145l-79 -504q-12 -85 5 -128.5t77 -43.5q92 0 157.5 122.5t65.5 286.5q0 115 -43 215t-120 172.5t-188.5 114t-242.5 41.5q-136 0 -256 -49.5t-206.5 -137t-136.5 -213.5t-50 -274q0 -138 46.5 -259.5t131 -212t212 -143t281.5 -52.5q219 0 373 75v-141
q-167 -63 -373 -63q-177 0 -329.5 59.5t-260 164.5t-168.5 253.5t-61 320.5zM610 358q0 -91 47.5 -140.5t139.5 -49.5q129 0 229 129l47 297q-23 57 -71.5 92t-116.5 35q-123 0 -199 -106t-76 -257z" />
    <glyph glyph-name="A" unicode="A" horiz-adv-x="1394" 
d="M20 0l576 1434h203l575 -1434h-211l-145 367h-645l-144 -367h-209zM442 545h504l-254 641z" />
    <glyph glyph-name="B" unicode="B" horiz-adv-x="1220" 
d="M184 0v1434h465q205 0 319.5 -101.5t114.5 -277.5q0 -111 -57.5 -192.5t-155.5 -117.5q121 -30 189.5 -127t68.5 -223q0 -173 -123 -284t-321 -111h-500zM377 172h287q116 0 190 65.5t74 170.5q0 108 -68 172.5t-196 64.5h-287v-473zM377 817h250q120 0 189 64.5
t69 171.5q0 94 -70 151.5t-188 57.5h-250v-445z" />
    <glyph glyph-name="C" unicode="C" horiz-adv-x="1390" 
d="M92 717q0 145 40 268t109.5 210t163 148.5t199.5 91t219 29.5q142 0 253 -33t233 -98v-205q-243 154 -486 154q-81 0 -156.5 -21t-144 -66.5t-119 -110.5t-80.5 -159.5t-30 -207.5t30 -207.5t80.5 -159.5t119 -110.5t144 -66.5t156.5 -21q244 0 486 153v-205
q-122 -65 -233 -98t-253 -33t-272 48t-233 139t-164.5 236t-61.5 325z" />
    <glyph glyph-name="D" unicode="D" horiz-adv-x="1460" 
d="M184 0v1434h500q140 0 263 -46.5t217.5 -134.5t149 -227t54.5 -313q0 -173 -55.5 -311t-150.5 -224.5t-218.5 -132t-263.5 -45.5h-496zM377 178h297q102 0 190 33t156.5 97t107.5 168t39 237q0 134 -38.5 239t-106 170.5t-155 99t-189.5 33.5h-301v-1077z" />
    <glyph glyph-name="E" unicode="E" horiz-adv-x="1181" 
d="M184 0v1434h875v-179h-682v-446h618v-178h-618v-453h682v-178h-875z" />
    <glyph glyph-name="F" unicode="F" horiz-adv-x="1130" 
d="M184 0v1434h875v-179h-682v-467h618v-178h-618v-610h-193z" />
    <glyph glyph-name="G" unicode="G" horiz-adv-x="1492" 
d="M92 717q0 145 40 268t109.5 210t163 148.5t199.5 91t219 29.5q142 0 253 -33t233 -98v-205q-243 154 -486 154q-81 0 -156.5 -21t-144 -66.5t-119 -110.5t-80.5 -159.5t-30 -207.5t30 -207.5t80.5 -159t119 -109.5t144 -66t156.5 -21q154 0 297 61v317h-495v179h684v-611
q-122 -65 -233 -98t-253 -33t-272 48t-233 139t-164.5 236t-61.5 325z" />
    <glyph glyph-name="H" unicode="H" horiz-adv-x="1495" 
d="M184 0v1434h193v-615h741v615h193v-1434h-193v641h-741v-641h-193z" />
    <glyph glyph-name="I" unicode="I" horiz-adv-x="561" 
d="M184 0v1434h193v-1434h-193z" />
    <glyph glyph-name="J" unicode="J" horiz-adv-x="962" 
d="M102 16v185q105 -47 248 -47q116 0 176 68.5t60 195.5v1016h192v-1016q0 -215 -107 -332t-321 -117q-138 0 -248 47z" />
    <glyph glyph-name="K" unicode="K" horiz-adv-x="1359" 
d="M184 0v1434h193v-709l682 709h262l-596 -611l604 -823h-239l-498 686l-215 -219v-467h-193z" />
    <glyph glyph-name="L" unicode="L" horiz-adv-x="1165" 
d="M184 0v1434h193v-1250h686v-184h-879z" />
    <glyph glyph-name="M" unicode="M" horiz-adv-x="1843" 
d="M184 0v1434h197l541 -883l544 883h193v-1434h-189v1098l-540 -873h-21l-536 873v-1098h-189z" />
    <glyph glyph-name="N" unicode="N" horiz-adv-x="1538" 
d="M184 0v1434h240l741 -1092v1092h189v-1434h-197l-784 1182v-1182h-189z" />
    <glyph glyph-name="O" unicode="O" horiz-adv-x="1642" 
d="M92 717q0 176 61 320.5t163.5 236t232.5 141t272 49.5t272 -49.5t232.5 -141t163.5 -236t61 -320.5t-61 -320.5t-163.5 -236.5t-232.5 -141.5t-272 -49.5t-272 49.5t-232.5 141.5t-163.5 236.5t-61 320.5zM293 717q0 -134 44.5 -243.5t119 -178t168 -105t196.5 -36.5
t197 36.5t168.5 105t119 178t44.5 243.5t-44.5 243t-119 177.5t-168.5 105.5t-197 37t-197 -37t-168 -105.5t-118.5 -177.5t-44.5 -243z" />
    <glyph glyph-name="P" unicode="P" horiz-adv-x="1210" 
d="M184 0v1434h516q130 0 234 -62t159.5 -164.5t55.5 -224.5q0 -188 -126 -318t-323 -130h-323v-535h-193zM377 713h291q129 0 204.5 76.5t75.5 193.5t-75.5 194.5t-204.5 77.5h-291v-542z" />
    <glyph glyph-name="Q" unicode="Q" horiz-adv-x="1642" 
d="M92 717q0 176 61 320.5t163.5 236t232.5 141t272 49.5t272 -49.5t232.5 -141t163.5 -236t61 -320.5q0 -188 -67 -335.5t-185 -244.5l207 -258h-227l-129 162q-153 -72 -328 -72q-142 0 -272 49.5t-232.5 141.5t-163.5 236.5t-61 320.5zM293 717q0 -134 44.5 -243.5
t119 -178t168 -105t196.5 -36.5q107 0 207 41l-252 317h223l179 -223q172 155 172 428q0 134 -44.5 243t-119 177.5t-168.5 105.5t-197 37t-197 -37t-168 -105.5t-118.5 -177.5t-44.5 -243z" />
    <glyph glyph-name="R" unicode="R" horiz-adv-x="1261" 
d="M184 0v1434h516q201 0 330 -129.5t129 -313.5q0 -156 -81.5 -267t-221.5 -151l324 -573h-217l-304 553h-282v-553h-193zM377 731h307q133 0 203.5 71.5t70.5 188.5q0 116 -76 190t-198 74h-307v-524z" />
    <glyph glyph-name="S" unicode="S" horiz-adv-x="1218" 
d="M123 1059q0 83 34 156t96.5 128.5t159.5 88t216 32.5q195 0 393 -84v-196q-206 104 -393 104q-142 0 -226 -62t-84 -167q0 -170 187 -211l217 -47q181 -40 277 -146.5t96 -265.5q0 -82 -32 -157t-91 -134t-151.5 -94t-205.5 -35q-251 0 -483 125v193q102 -59 230.5 -99.5
t252.5 -40.5q143 0 211 66.5t68 175.5q0 80 -56 143.5t-161 85.5l-207 46q-348 76 -348 395z" />
    <glyph glyph-name="T" unicode="T" horiz-adv-x="1306" 
d="M82 1255v179h1143v-179h-475v-1255h-193v1255h-475z" />
    <glyph glyph-name="U" unicode="U" horiz-adv-x="1398" 
d="M174 487v947h193v-940q0 -160 90.5 -250t242.5 -90q154 0 243 90t89 250v940h193v-947q0 -166 -70.5 -285t-187.5 -176t-267 -57q-112 0 -207 33.5t-166.5 97t-112 163t-40.5 224.5z" />
    <glyph glyph-name="V" unicode="V" horiz-adv-x="1386" 
d="M41 1434h223l428 -1020l432 1020h222l-648 -1465h-20z" />
    <glyph glyph-name="W" unicode="W" horiz-adv-x="2076" 
d="M41 1434h209l321 -981l385 981h162l393 -981l316 981h209l-506 -1465h-21l-473 1164l-465 -1164h-20z" />
    <glyph glyph-name="X" unicode="X" horiz-adv-x="1277" 
d="M31 0l491 727l-467 707h240l348 -557l354 557h236l-469 -707l483 -727h-237l-369 573l-377 -573h-233z" />
    <glyph glyph-name="Y" unicode="Y" horiz-adv-x="1380" 
d="M41 1434h221l430 -711l430 711h217l-548 -893v-541h-197v541z" />
    <glyph glyph-name="Z" unicode="Z" horiz-adv-x="1294" 
d="M92 0v193l871 1062h-850v179h1089v-187l-874 -1067h884v-180h-1120z" />
    <glyph glyph-name="bracketleft" unicode="[" horiz-adv-x="671" 
d="M113 -319v1794h395v-154h-227v-1487h227v-153h-395z" />
    <glyph glyph-name="backslash" unicode="\" horiz-adv-x="1073" 
d="M41 1536h186l805 -1741h-186z" />
    <glyph glyph-name="bracketright" unicode="]" horiz-adv-x="671" 
d="M164 -166h227v1487h-227v154h395v-1794h-395v153z" />
    <glyph glyph-name="asciicircum" unicode="^" horiz-adv-x="940" 
d="M41 702l334 732h192l332 -734h-166l-262 584l-262 -582h-168z" />
    <glyph glyph-name="underscore" unicode="_" horiz-adv-x="1130" 
d="M31 -102h1069v-162h-1069v162z" />
    <glyph glyph-name="grave" unicode="`" horiz-adv-x="583" 
d="M82 1434h242l178 -310h-162z" />
    <glyph glyph-name="a" unicode="a" horiz-adv-x="1067" 
d="M102 313q0 98 53.5 172t138.5 111t187 37q167 0 279 -62v105q0 76 -58 126t-167 50q-100 0 -200 -32.5t-175 -80.5v187q180 90 375 90q106 0 187 -29t128 -79.5t70.5 -114t23.5 -138.5v-655h-178v80q-49 -48 -123.5 -79.5t-161.5 -31.5q-169 0 -274 91.5t-105 252.5z
M295 313q0 -85 61.5 -135.5t157.5 -50.5q78 0 144 31t102 67v181q-34 27 -101.5 50t-144.5 23q-96 0 -157.5 -44t-61.5 -122z" />
    <glyph glyph-name="b" unicode="b" horiz-adv-x="1222" 
d="M164 0v1485h184v-604q131 135 322 135q141 0 249.5 -70t165 -187.5t56.5 -262.5q0 -147 -56.5 -266t-165 -190t-249.5 -71q-189 0 -322 137v-106h-184zM348 307q50 -71 124 -117.5t165 -46.5q142 0 225.5 95t83.5 258q0 160 -83.5 253t-225.5 93q-91 0 -165.5 -46
t-123.5 -116v-373z" />
    <glyph glyph-name="c" unicode="c" horiz-adv-x="1017" 
d="M82 494q0 229 149 375.5t377 146.5q159 0 307 -70v-205q-140 95 -307 95q-61 0 -119 -22t-105.5 -63t-76 -107.5t-28.5 -149.5t28.5 -150t76 -108.5t105.5 -63.5t119 -22q169 0 307 94v-205q-148 -70 -307 -70q-228 0 -377 148t-149 377z" />
    <glyph glyph-name="d" unicode="d" horiz-adv-x="1222" 
d="M82 496q0 145 56.5 262.5t165 187.5t249.5 70q190 0 321 -135v604h185v-1485h-185v106q-133 -137 -321 -137q-141 0 -249.5 71t-165 190t-56.5 266zM276 496q0 -163 84 -258t226 -95q91 0 164.5 46.5t123.5 117.5v373q-50 71 -123.5 116.5t-164.5 45.5q-142 0 -226 -93
t-84 -253z" />
    <glyph glyph-name="e" unicode="e" horiz-adv-x="1128" 
d="M82 496q0 115 39 213.5t105 165t154 104t185 37.5q224 0 353 -147t129 -384q0 -35 -5 -65h-761q6 -122 94 -201.5t213 -79.5q118 0 214 35.5t197 114.5v-183q-174 -137 -411 -137q-104 0 -195 34t-160.5 98.5t-110 166t-40.5 228.5zM287 580h559q-3 120 -77 193t-204 73
q-118 0 -195 -78t-83 -188z" />
    <glyph glyph-name="f" unicode="f" horiz-adv-x="708" 
d="M41 819v164h186v168q0 155 87 246.5t247 91.5q57 0 107 -12v-179q-40 15 -95 15q-28 0 -55 -8.5t-52.5 -26.5t-41.5 -53.5t-16 -83.5v-158h258v-164h-258v-819h-185v819h-182z" />
    <glyph glyph-name="g" unicode="g" horiz-adv-x="1181" 
d="M82 516q0 227 131.5 363.5t329.5 136.5q109 0 193 -37.5t138 -97.5v102h185v-958q0 -95 -27.5 -176.5t-85.5 -148t-158.5 -104.5t-234.5 -38q-118 0 -226 35t-184 83v193q97 -68 207 -103.5t203 -35.5q321 0 321 295v127q-54 -61 -138 -98.5t-193 -37.5
q-198 0 -329.5 136.5t-131.5 363.5zM276 516q0 -85 24.5 -150t67 -102t94.5 -55.5t113 -18.5q91 0 171 46.5t128 115.5v328q-44 68 -125 115t-174 47q-125 0 -212 -86t-87 -240z" />
    <glyph glyph-name="h" unicode="h" horiz-adv-x="1163" 
d="M164 0v1485h184v-592q123 123 297 123q97 0 180.5 -40.5t139 -126t55.5 -200.5v-649h-184v602q0 108 -68.5 173t-165.5 65q-151 0 -254 -131v-709h-184z" />
    <glyph glyph-name="i" unicode="i" horiz-adv-x="514" 
d="M123 1358q0 59 38 98t95 39q58 0 96.5 -39t38.5 -98q0 -57 -38.5 -96t-96.5 -39q-57 0 -95 39t-38 96zM166 0v983h184v-983h-184z" />
    <glyph glyph-name="j" unicode="j" horiz-adv-x="524" 
d="M-41 -274q35 -7 68 -7q139 0 139 144v1120h184v-1120q0 -136 -72.5 -220.5t-197.5 -84.5q-79 0 -121 14v154zM123 1358q0 59 38 98t95 39q58 0 96.5 -39t38.5 -98q0 -57 -38.5 -96t-96.5 -39q-57 0 -95 39t-38 96z" />
    <glyph glyph-name="k" unicode="k" horiz-adv-x="1079" 
d="M164 0v1485h184v-916l443 414h260l-416 -385l424 -598h-236l-327 469l-148 -135v-334h-184z" />
    <glyph glyph-name="l" unicode="l" horiz-adv-x="512" 
d="M164 0v1485h184v-1485h-184z" />
    <glyph glyph-name="m" unicode="m" horiz-adv-x="1765" 
d="M164 0v983h180v-94q123 127 297 127q87 0 159.5 -34.5t117.5 -100.5q140 135 339 135q150 0 257.5 -98t107.5 -269v-649h-184v602q0 111 -57.5 174.5t-151.5 63.5q-148 0 -248 -127q4 -40 4 -64v-649h-182v602q0 111 -56 174.5t-149 63.5q-147 0 -250 -131v-709h-184z
" />
    <glyph glyph-name="n" unicode="n" 
d="M164 0v983h180v-94q123 127 297 127q72 0 137.5 -24t118 -69t84 -116t31.5 -158v-649h-185v602q0 109 -66.5 173.5t-162.5 64.5q-147 0 -250 -131v-709h-184z" />
    <glyph glyph-name="o" unicode="o" horiz-adv-x="1200" 
d="M82 494q0 225 147 373.5t371 148.5t371 -148.5t147 -373.5q0 -226 -147 -375.5t-371 -149.5t-371 149.5t-147 375.5zM276 494q0 -164 95 -257.5t229 -93.5t229 93.5t95 257.5q0 162 -95 255t-229 93t-229 -93t-95 -255z" />
    <glyph glyph-name="p" unicode="p" horiz-adv-x="1222" 
d="M164 -387v1370h184v-102q131 135 322 135q141 0 249.5 -70t165 -187.5t56.5 -262.5q0 -147 -56.5 -266t-165 -190t-249.5 -71q-189 0 -322 137v-493h-184zM348 307q50 -71 124 -117.5t165 -46.5q142 0 225.5 95t83.5 258q0 160 -83.5 253t-225.5 93q-91 0 -165.5 -46
t-123.5 -116v-373z" />
    <glyph glyph-name="q" unicode="q" horiz-adv-x="1202" 
d="M82 496q0 145 56.5 262.5t165 187.5t249.5 70q190 0 321 -135v102h185v-1370h-185v493q-133 -137 -321 -137q-141 0 -249.5 71t-165 190t-56.5 266zM276 496q0 -163 84 -258t226 -95q91 0 164.5 46.5t123.5 117.5v373q-50 71 -123.5 116.5t-164.5 45.5q-142 0 -226 -93
t-84 -253z" />
    <glyph glyph-name="r" unicode="r" horiz-adv-x="774" 
d="M164 0v983h180v-170q37 96 119.5 149.5t181.5 53.5q26 0 68 -6v-205q-44 6 -88 6q-112 0 -183 -60t-94 -141v-610h-184z" />
    <glyph glyph-name="s" unicode="s" horiz-adv-x="925" 
d="M102 717q0 134 104 216.5t267 82.5q161 0 313 -68v-180q-162 84 -313 84q-93 0 -139.5 -37.5t-46.5 -97.5q0 -40 30 -72t89 -45l155 -35q133 -29 203 -103.5t70 -187.5q0 -143 -112.5 -224t-283.5 -81q-88 0 -178 23t-156 57v178q180 -94 334 -94q100 0 153.5 36
t53.5 105q0 47 -33.5 79t-95.5 46l-168 37q-119 26 -182.5 98.5t-63.5 182.5z" />
    <glyph glyph-name="t" unicode="t" horiz-adv-x="735" 
d="M41 819v164h190v291l172 102v-393h240v-164h-240v-549q0 -135 148 -135q49 0 92 15v-160q-56 -21 -147 -21q-128 0 -202.5 71t-74.5 202v577h-178z" />
    <glyph glyph-name="u" unicode="u" 
d="M154 336v647h184v-600q0 -109 66.5 -173.5t162.5 -64.5q148 0 250 129v709h184v-983h-180v94q-121 -125 -297 -125q-72 0 -137.5 24t-118 69t-83.5 116t-31 158z" />
    <glyph glyph-name="v" unicode="v" horiz-adv-x="1048" 
d="M20 983h211l297 -762l299 762h201l-403 -983h-195z" />
    <glyph glyph-name="w" unicode="w" horiz-adv-x="1624" 
d="M31 983h205l227 -743l260 743h190l261 -743l223 743h196l-319 -983h-199l-262 748l-256 -748h-203z" />
    <glyph glyph-name="x" unicode="x" horiz-adv-x="1026" 
d="M20 0l375 506l-352 477h229l248 -354l240 354h223l-342 -485l365 -498h-228l-270 373l-262 -373h-226z" />
    <glyph glyph-name="y" unicode="y" horiz-adv-x="1093" 
d="M20 983h213l318 -678l305 678h217l-657 -1395h-217l256 521z" />
    <glyph glyph-name="z" unicode="z" horiz-adv-x="974" 
d="M82 0v168l563 647h-555v168h793v-162l-564 -647h574v-174h-811z" />
    <glyph glyph-name="braceleft" unicode="{" horiz-adv-x="876" 
d="M113 489v177q204 0 204 206v242q0 168 75 264.5t233 96.5h88v-154h-68q-82 0 -121 -48.5t-39 -146.5v-297q0 -103 -51 -167.5t-149 -83.5q98 -19 149 -84t51 -168v-297q0 -98 39 -146.5t121 -48.5h68v-153h-88q-158 0 -233 96t-75 264v242q0 206 -204 206z" />
    <glyph glyph-name="bar" unicode="|" horiz-adv-x="532" 
d="M184 -412v1948h164v-1948h-164z" />
    <glyph glyph-name="braceright" unicode="}" horiz-adv-x="876" 
d="M164 -166h67q82 0 121 48.5t39 146.5v297q0 103 51.5 168t149.5 84q-98 19 -149.5 83.5t-51.5 167.5v297q0 98 -39 146.5t-121 48.5h-67v154h88q158 0 232.5 -96.5t74.5 -264.5v-242q0 -206 205 -206v-177q-205 0 -205 -206v-242q0 -168 -74.5 -264t-232.5 -96h-88v153z
" />
    <glyph glyph-name="asciitilde" unicode="~" horiz-adv-x="1183" 
d="M92 563q116 191 297 191q99 0 195 -54l94 -51q64 -33 117 -33q109 0 180 113l117 -94q-116 -191 -297 -191q-96 0 -199 56l-94 51q-60 31 -113 31q-109 0 -180 -113z" />
    <glyph glyph-name="uni00A0" unicode="&#xa0;" horiz-adv-x="600" 
 />
    <glyph glyph-name="exclamdown" unicode="&#xa1;" horiz-adv-x="653" 
d="M184 874q0 60 41 101t101 41t101.5 -41t41.5 -101t-41.5 -101.5t-101.5 -41.5t-101 41.5t-41 101.5zM219 -428l39 997h137l37 -997h-213z" />
    <glyph glyph-name="cent" unicode="&#xa2;" horiz-adv-x="1017" 
d="M82 494q0 205 121.5 346.5t316.5 169.5v178h164v-176q123 -13 231 -66v-205q-116 76 -231 90v-677q115 14 231 90v-205q-108 -53 -231 -66v-262h-164v264q-195 29 -316.5 171.5t-121.5 347.5zM279 494q0 -132 68.5 -218.5t172.5 -113.5v661q-104 -27 -172.5 -112
t-68.5 -217z" />
    <glyph glyph-name="sterling" unicode="&#xa3;" horiz-adv-x="1181" 
d="M133 0v195q103 42 164 120.5t61 165.5q0 59 -24 140h-184v176h124q-47 132 -47 262q0 82 33 155.5t93.5 129t152 88t201.5 32.5q195 0 393 -84v-196q-206 104 -393 104q-131 0 -207 -63.5t-76 -165.5q0 -91 55 -262h516v-176h-463q19 -68 19 -117q0 -107 -52 -193
t-145 -133h776v-178h-997z" />
    <glyph glyph-name="currency" unicode="&#xa4;" horiz-adv-x="1216" 
d="M102 236l150 155q-72 112 -72 242q0 135 76 248l-154 157l123 121l154 -160q112 72 237 72q124 0 228 -63l147 151l123 -121l-143 -149q84 -119 84 -256q0 -143 -82 -252l141 -145l-121 -121l-143 147q-106 -67 -234 -67q-131 0 -243 75l-150 -155zM350 633
q0 -118 77 -194.5t189 -76.5t187.5 76t75.5 195q0 117 -75.5 192.5t-187.5 75.5t-189 -75.5t-77 -192.5z" />
    <glyph glyph-name="yen" unicode="&#xa5;" horiz-adv-x="1380" 
d="M41 1434h221l430 -711l430 711h217l-444 -723h227v-179h-331v-129h331v-178h-331v-225h-197v225h-408v178h408v129h-408v179h303z" />
    <glyph glyph-name="brokenbar" unicode="&#xa6;" horiz-adv-x="532" 
d="M184 307h164v-719h-164v719zM184 817v719h164v-719h-164z" />
    <glyph glyph-name="section" unicode="&#xa7;" horiz-adv-x="1157" 
d="M174 565q0 80 44.5 145.5t109.5 100.5q-154 109 -154 293q0 165 125 262.5t319 97.5q177 0 345 -63v-187q-192 84 -345 84q-110 0 -179.5 -50t-69.5 -144q0 -126 129 -182l250 -111q117 -52 176 -136t59 -192q0 -80 -44.5 -145t-109.5 -100q154 -109 154 -293
q0 -165 -125.5 -263t-318.5 -98q-173 0 -344 64v186q192 -84 344 -84q110 0 179.5 50.5t69.5 144.5q0 126 -129 182l-249 111q-117 52 -176.5 136t-59.5 191zM350 565q0 -100 139 -164l181 -82q65 18 101 62.5t36 101.5q0 100 -139 164l-181 82q-65 -18 -101 -62.5
t-36 -101.5z" />
    <glyph glyph-name="dieresis" unicode="&#xa8;" horiz-adv-x="804" 
d="M82 1292q0 51 35 87t86 36q52 0 88.5 -36t36.5 -87q0 -52 -36 -87.5t-89 -35.5q-51 0 -86 35.5t-35 87.5zM477 1292q0 51 35.5 87t87.5 36q51 0 87 -36t36 -87q0 -52 -36 -87.5t-87 -35.5q-52 0 -87.5 35.5t-35.5 87.5z" />
    <glyph glyph-name="copyright" unicode="&#xa9;" horiz-adv-x="1701" 
d="M102 717q0 157 57.5 296t156.5 238t237 156t295 57t296.5 -57t239 -156t157.5 -238t58 -296q0 -210 -98.5 -381.5t-270.5 -269t-382 -97.5q-209 0 -380 97.5t-268.5 269t-97.5 381.5zM262 717q0 -131 44.5 -242.5t122 -189.5t186 -122t233.5 -44t233.5 44t186 122
t122 189.5t44.5 242.5t-44.5 242.5t-122 189.5t-186 122t-233.5 44t-233.5 -44t-186 -122t-122 -189.5t-44.5 -242.5zM430 717q0 103 35 186.5t94.5 135t133.5 79t155 27.5q132 0 276 -72v-162q-131 88 -276 88q-117 0 -187.5 -74t-70.5 -208t70.5 -208.5t187.5 -74.5
q145 0 276 88v-162q-142 -71 -276 -71q-81 0 -155 27.5t-133.5 79t-94.5 135t-35 186.5z" />
    <glyph glyph-name="ordfeminine" unicode="&#xaa;" horiz-adv-x="800" 
d="M102 975q0 102 80 164.5t189 62.5q102 0 190 -43v62q0 52 -41.5 86t-113.5 34q-71 0 -142.5 -22t-122.5 -55v137q123 63 265 63q141 0 216.5 -75t75.5 -183v-446h-133v55q-91 -78 -198 -78q-118 0 -191.5 63t-73.5 175zM246 975q0 -55 42 -87t107 -32q98 0 166 68v112
q-69 51 -166 51q-65 0 -107 -30.5t-42 -81.5z" />
    <glyph glyph-name="guillemotleft" unicode="&#xab;" horiz-adv-x="1093" 
d="M61 532l351 392h170l-279 -392l279 -391h-170zM471 532l350 392h170l-278 -392l278 -391h-170z" />
    <glyph glyph-name="logicalnot" unicode="&#xac;" horiz-adv-x="1120" 
d="M61 610v162h998v-575h-162v413h-836z" />
    <glyph glyph-name="uni00AD" unicode="&#xad;" horiz-adv-x="759" 
d="M92 504v168h576v-168h-576z" />
    <glyph glyph-name="registered" unicode="&#xae;" horiz-adv-x="899" 
d="M61 1077q0 160 113 273.5t275 113.5t275.5 -113.5t113.5 -273.5t-113.5 -273.5t-275.5 -113.5t-275 113.5t-113 273.5zM162 1077q0 -124 81.5 -208.5t205.5 -84.5t206 84.5t82 208.5t-82 208.5t-206 84.5t-205.5 -84.5t-81.5 -208.5zM311 881v401h166q58 0 98.5 -39.5
t40.5 -93.5q0 -80 -63 -117l74 -151h-107l-63 133h-43v-133h-103zM414 1096h45q23 0 38 15t15 38q0 22 -15 35.5t-38 13.5h-45v-102z" />
    <glyph glyph-name="macron" unicode="&#xaf;" horiz-adv-x="722" 
d="M82 1223v166h559v-166h-559z" />
    <glyph glyph-name="degree" unicode="&#xb0;" horiz-adv-x="759" 
d="M51 1143q0 134 97.5 227.5t230.5 93.5q134 0 232 -94t98 -227q0 -135 -98 -229.5t-232 -94.5q-133 0 -230.5 94.5t-97.5 229.5zM211 1143q0 -74 48.5 -123t119.5 -49q72 0 120 48.5t48 123.5q0 73 -48 121.5t-120 48.5q-71 0 -119.5 -48.5t-48.5 -121.5z" />
    <glyph glyph-name="plusminus" unicode="&#xb1;" horiz-adv-x="935" 
d="M0 98v162h936v-162h-936zM0 692v162h383v297h168v-297h385v-162h-385v-301h-168v301h-383z" />
    <glyph glyph-name="uni00B2" unicode="&#xb2;" horiz-adv-x="868" 
d="M164 651q-1 130 42.5 214t143.5 151l105 69q55 36 80.5 67.5t25.5 72.5q0 49 -44 78.5t-116 29.5q-118 0 -225 -67v141q103 57 225 57q136 0 223 -65.5t87 -173.5q0 -68 -46 -125.5t-133 -114.5l-116 -76q-86 -56 -86 -123h385v-135h-551z" />
    <glyph glyph-name="uni00B3" unicode="&#xb3;" horiz-adv-x="886" 
d="M184 676v141q107 -67 238 -67q81 0 126.5 36.5t45.5 90.5q0 63 -45.5 93.5t-112.5 30.5q-46 0 -78 -14l-63 119l235 192h-342v136h541v-134l-231 -186q8 2 24 2q91 0 156 -67.5t65 -169.5q0 -116 -91 -188.5t-230 -72.5q-133 0 -238 58z" />
    <glyph glyph-name="acute" unicode="&#xb4;" horiz-adv-x="583" 
d="M82 1124l178 310h242l-258 -310h-162z" />
    <glyph glyph-name="paragraph" unicode="&#xb6;" horiz-adv-x="1136" 
d="M72 1006q0 195 119.5 311.5t310.5 116.5h450v-1846h-184v990h-299q-116 0 -207.5 57.5t-140.5 154.5t-49 216z" />
    <glyph glyph-name="periodcentered" unicode="&#xb7;" horiz-adv-x="571" 
d="M143 602q0 60 41 101.5t101 41.5t101.5 -41.5t41.5 -101.5t-41.5 -100.5t-101.5 -40.5t-101 40.5t-41 100.5z" />
    <glyph glyph-name="cedilla" unicode="&#xb8;" horiz-adv-x="587" 
d="M82 -281q89 -49 182 -49q40 0 68 17.5t28 50.5q0 29 -24 47t-66 18q-32 0 -59 -10l-68 80l99 156h145l-94 -127q16 4 37 4q74 0 125 -48t51 -120q0 -78 -61 -131t-179 -53q-87 0 -184 45v120z" />
    <glyph glyph-name="uni00B9" unicode="&#xb9;" horiz-adv-x="735" 
d="M154 1196v147l211 105h135v-797h-146v643z" />
    <glyph glyph-name="ordmasculine" unicode="&#xba;" horiz-adv-x="894" 
d="M82 1102q0 155 105 258.5t262 103.5q153 0 258.5 -104t105.5 -258q0 -156 -104.5 -260.5t-259.5 -104.5q-157 0 -262 104t-105 261zM227 1102q0 -111 65.5 -173.5t156.5 -62.5q93 0 156 62t63 174q0 110 -63 171.5t-156 61.5q-91 0 -156.5 -61.5t-65.5 -171.5z" />
    <glyph glyph-name="guillemotright" unicode="&#xbb;" horiz-adv-x="1093" 
d="M102 141l279 391l-279 392h170l351 -392l-351 -391h-170zM512 141l279 391l-279 392h170l350 -392l-350 -391h-170z" />
    <glyph glyph-name="onequarter" unicode="&#xbc;" horiz-adv-x="1628" 
d="M154 1196v147l211 105h135v-797h-146v643zM322 -82l702 1618h156l-703 -1618h-155zM883 190v162l323 445h191v-471h129v-136h-129v-190h-146v190h-368zM1018 326h233v323z" />
    <glyph glyph-name="onehalf" unicode="&#xbd;" horiz-adv-x="1769" 
d="M154 1196v147l211 105h135v-797h-146v643zM322 -82l702 1618h156l-703 -1618h-155zM1065 0q-1 130 42.5 214t143.5 151l105 69q56 36 81 67t25 72q0 49 -43.5 79t-115.5 30q-118 0 -226 -68v142q103 57 226 57q136 0 222.5 -66t86.5 -174q0 -68 -45.5 -125t-132.5 -114
l-117 -76q-86 -56 -86 -123h385v-135h-551z" />
    <glyph glyph-name="threequarters" unicode="&#xbe;" horiz-adv-x="1820" 
d="M184 676v141q107 -67 238 -67q81 0 126.5 36.5t45.5 90.5q0 63 -45.5 93.5t-112.5 30.5q-46 0 -78 -14l-63 119l235 192h-342v136h541v-134l-231 -186q8 2 24 2q91 0 156 -67.5t65 -169.5q0 -116 -91 -188.5t-230 -72.5q-133 0 -238 58zM514 -82l703 1618h155l-702 -1618
h-156zM1075 190v162l324 445h190v-471h129v-136h-129v-190h-145v190h-369zM1210 326h234v323z" />
    <glyph glyph-name="questiondown" unicode="&#xbf;" horiz-adv-x="995" 
d="M72 -66q0 214 209 347l114 73q48 31 67 72.5t19 103.5v39h176v-71q0 -102 -39 -170.5t-131 -128.5l-110 -72q-109 -71 -109 -193q0 -92 76.5 -154.5t206.5 -62.5q180 0 373 99v-191q-176 -84 -373 -84q-223 0 -351 113t-128 280zM426 874q0 60 41.5 101t101.5 41t101 -41
t41 -101t-41 -101.5t-101 -41.5t-101.5 41.5t-41.5 101.5z" />
    <glyph glyph-name="Agrave" unicode="&#xc0;" horiz-adv-x="1394" 
d="M20 0l576 1434h203l575 -1434h-211l-145 367h-645l-144 -367h-209zM397 1884h242l178 -309h-162zM442 545h504l-254 641z" />
    <glyph glyph-name="Aacute" unicode="&#xc1;" horiz-adv-x="1394" 
d="M20 0l576 1434h203l575 -1434h-211l-145 367h-645l-144 -367h-209zM442 545h504l-254 641zM571 1575l179 309h241l-258 -309h-162z" />
    <glyph glyph-name="Acircumflex" unicode="&#xc2;" horiz-adv-x="1394" 
d="M20 0l576 1434h203l575 -1434h-211l-145 367h-645l-144 -367h-209zM371 1589l213 295h219l213 -295h-180l-144 176l-143 -176h-178zM442 545h504l-254 641z" />
    <glyph glyph-name="Atilde" unicode="&#xc3;" horiz-adv-x="1394" 
d="M20 0l576 1434h203l575 -1434h-211l-145 367h-645l-144 -367h-209zM377 1628q0 125 53.5 189.5t147.5 64.5q26 0 52.5 -8t41 -15.5t43.5 -23.5l28 -16q60 -33 84 -33q62 0 62 92h133q0 -124 -51.5 -189t-147.5 -65q-63 0 -133 45l-31 19q-58 32 -86 32q-63 0 -63 -92
h-133zM442 545h504l-254 641z" />
    <glyph glyph-name="Adieresis" unicode="&#xc4;" horiz-adv-x="1394" 
d="M20 0l576 1434h203l575 -1434h-211l-145 367h-645l-144 -367h-209zM373 1743q0 51 35 87t86 36q52 0 88 -36t36 -87q0 -52 -35.5 -87.5t-88.5 -35.5q-51 0 -86 35.5t-35 87.5zM442 545h504l-254 641zM768 1743q0 51 35.5 87t87.5 36q51 0 87 -36t36 -87q0 -52 -36 -87.5
t-87 -35.5q-53 0 -88 35t-35 88z" />
    <glyph glyph-name="Aring" unicode="&#xc5;" horiz-adv-x="1394" 
d="M20 0l576 1434h203l575 -1434h-211l-145 367h-645l-144 -367h-209zM442 545h504l-254 641zM465 1784q0 94 67.5 159.5t159.5 65.5q95 0 162.5 -65.5t67.5 -159.5q0 -93 -68 -158t-162 -65q-92 0 -159.5 65t-67.5 158zM594 1784q0 -41 27.5 -69.5t68.5 -28.5q43 0 72 28.5
t29 69.5q0 42 -29.5 71t-71.5 29q-41 0 -68.5 -29t-27.5 -71z" />
    <glyph glyph-name="AE" unicode="&#xc6;" horiz-adv-x="1837" 
d="M20 0l576 1434h1118v-179h-844l179 -446h602v-178h-531l183 -453h411v-178h-551l-145 367h-645l-144 -367h-209zM442 545h504l-254 641z" />
    <glyph glyph-name="Ccedilla" unicode="&#xc7;" horiz-adv-x="1390" 
d="M92 717q0 145 40 268t109.5 210t163 148.5t199.5 91t219 29.5q142 0 253 -33t233 -98v-205q-243 154 -486 154q-81 0 -156.5 -21t-144 -66.5t-119 -110.5t-80.5 -159.5t-30 -207.5t30 -207.5t80.5 -159.5t119 -110.5t144 -66.5t156.5 -21q244 0 486 153v-205
q-111 -59 -210 -91t-220 -38l-52 -69q16 4 37 4q74 0 125 -48t51 -120q0 -78 -60.5 -131t-178.5 -53q-88 0 -185 45v120q89 -49 183 -49q40 0 68 17.5t28 50.5q0 29 -24 47t-66 18q-33 0 -60 -10l-67 80l63 100q-131 13 -246 67t-206 145t-144 228t-53 304z" />
    <glyph glyph-name="Egrave" unicode="&#xc8;" horiz-adv-x="1181" 
d="M184 0v1434h875v-179h-682v-446h618v-178h-618v-453h682v-178h-875zM365 1884h241l178 -309h-161z" />
    <glyph glyph-name="Eacute" unicode="&#xc9;" horiz-adv-x="1181" 
d="M184 0v1434h875v-179h-682v-446h618v-178h-618v-453h682v-178h-875zM539 1575l178 309h241l-258 -309h-161z" />
    <glyph glyph-name="Ecircumflex" unicode="&#xca;" horiz-adv-x="1181" 
d="M184 0v1434h875v-179h-682v-446h618v-178h-618v-453h682v-178h-875zM338 1589l213 295h219l213 -295h-180l-144 176l-143 -176h-178z" />
    <glyph glyph-name="Edieresis" unicode="&#xcb;" horiz-adv-x="1181" 
d="M184 0v1434h875v-179h-682v-446h618v-178h-618v-453h682v-178h-875zM340 1743q0 51 35 87t86 36q52 0 88.5 -36t36.5 -87q0 -52 -36 -87.5t-89 -35.5q-51 0 -86 35.5t-35 87.5zM735 1743q0 51 35.5 87t87.5 36q51 0 87 -36t36 -87q0 -52 -36 -87.5t-87 -35.5
q-52 0 -87.5 35t-35.5 88z" />
    <glyph glyph-name="Igrave" unicode="&#xcc;" horiz-adv-x="561" 
d="M-10 1884h241l179 -309h-162zM184 0v1434h193v-1434h-193z" />
    <glyph glyph-name="Iacute" unicode="&#xcd;" horiz-adv-x="561" 
d="M164 1575l178 309h242l-258 -309h-162zM184 0v1434h193v-1434h-193z" />
    <glyph glyph-name="Icircumflex" unicode="&#xce;" horiz-adv-x="561" 
d="M-37 1589l213 295h219l213 -295h-180l-143 176l-144 -176h-178zM184 0v1434h193v-1434h-193z" />
    <glyph glyph-name="Idieresis" unicode="&#xcf;" horiz-adv-x="561" 
d="M-35 1743q0 51 35 87t86 36q52 0 88.5 -36t36.5 -87q0 -52 -36 -87.5t-89 -35.5q-51 0 -86 35.5t-35 87.5zM184 0v1434h193v-1434h-193zM360 1743q0 51 35.5 87t87.5 36q51 0 87 -36t36 -87q0 -52 -36 -87.5t-87 -35.5q-53 0 -88 35t-35 88z" />
    <glyph glyph-name="Eth" unicode="&#xd0;" horiz-adv-x="1615" 
d="M184 641v168h156v625h500q140 0 263 -46.5t217.5 -134.5t149 -227t54.5 -313q0 -173 -55.5 -311t-150.5 -224.5t-218.5 -132t-263.5 -45.5h-496v641h-156zM532 178h297q102 0 190.5 33t157 97t107.5 168t39 237q0 134 -38.5 239t-106 170.5t-155 99t-189.5 33.5h-302
v-446h394v-168h-394v-463z" />
    <glyph glyph-name="Ntilde" unicode="&#xd1;" horiz-adv-x="1538" 
d="M184 0v1434h240l741 -1092v1092h189v-1434h-197l-784 1182v-1182h-189zM487 1628q0 125 53.5 189.5t147.5 64.5q26 0 52.5 -8t41 -15.5t43.5 -23.5l29 -16q60 -33 84 -33q61 0 61 92h134q0 -124 -51.5 -189t-147.5 -65q-63 0 -133 45l-31 19q-58 32 -86 32q-63 0 -63 -92
h-134z" />
    <glyph glyph-name="Ograve" unicode="&#xd2;" horiz-adv-x="1642" 
d="M92 717q0 176 61 320.5t163.5 236t232.5 141t272 49.5t272 -49.5t232.5 -141t163.5 -236t61 -320.5t-61 -320.5t-163.5 -236.5t-232.5 -141.5t-272 -49.5t-272 49.5t-232.5 141.5t-163.5 236.5t-61 320.5zM293 717q0 -134 44.5 -243.5t119 -178t168 -105t196.5 -36.5
t197 36.5t168.5 105t119 178t44.5 243.5t-44.5 243t-119 177.5t-168.5 105.5t-197 37t-197 -37t-168 -105.5t-118.5 -177.5t-44.5 -243zM526 1884h242l178 -309h-162z" />
    <glyph glyph-name="Oacute" unicode="&#xd3;" horiz-adv-x="1642" 
d="M92 717q0 176 61 320.5t163.5 236t232.5 141t272 49.5t272 -49.5t232.5 -141t163.5 -236t61 -320.5t-61 -320.5t-163.5 -236.5t-232.5 -141.5t-272 -49.5t-272 49.5t-232.5 141.5t-163.5 236.5t-61 320.5zM293 717q0 -134 44.5 -243.5t119 -178t168 -105t196.5 -36.5
t197 36.5t168.5 105t119 178t44.5 243.5t-44.5 243t-119 177.5t-168.5 105.5t-197 37t-197 -37t-168 -105.5t-118.5 -177.5t-44.5 -243zM700 1575l179 309h241l-258 -309h-162z" />
    <glyph glyph-name="Ocircumflex" unicode="&#xd4;" horiz-adv-x="1642" 
d="M92 717q0 176 61 320.5t163.5 236t232.5 141t272 49.5t272 -49.5t232.5 -141t163.5 -236t61 -320.5t-61 -320.5t-163.5 -236.5t-232.5 -141.5t-272 -49.5t-272 49.5t-232.5 141.5t-163.5 236.5t-61 320.5zM293 717q0 -134 44.5 -243.5t119 -178t168 -105t196.5 -36.5
t197 36.5t168.5 105t119 178t44.5 243.5t-44.5 243t-119 177.5t-168.5 105.5t-197 37t-197 -37t-168 -105.5t-118.5 -177.5t-44.5 -243zM500 1589l213 295h219l213 -295h-180l-144 176l-143 -176h-178z" />
    <glyph glyph-name="Otilde" unicode="&#xd5;" horiz-adv-x="1642" 
d="M92 717q0 176 61 320.5t163.5 236t232.5 141t272 49.5t272 -49.5t232.5 -141t163.5 -236t61 -320.5t-61 -320.5t-163.5 -236.5t-232.5 -141.5t-272 -49.5t-272 49.5t-232.5 141.5t-163.5 236.5t-61 320.5zM293 717q0 -134 44.5 -243.5t119 -178t168 -105t196.5 -36.5
t197 36.5t168.5 105t119 178t44.5 243.5t-44.5 243t-119 177.5t-168.5 105.5t-197 37t-197 -37t-168 -105.5t-118.5 -177.5t-44.5 -243zM506 1628q0 125 53.5 189.5t147.5 64.5q26 0 52.5 -8t41 -15.5t43.5 -23.5l28 -16q60 -33 84 -33q62 0 62 92h133q0 -124 -51.5 -189
t-147.5 -65q-63 0 -133 45l-31 19q-58 32 -86 32q-63 0 -63 -92h-133z" />
    <glyph glyph-name="Odieresis" unicode="&#xd6;" horiz-adv-x="1642" 
d="M92 717q0 176 61 320.5t163.5 236t232.5 141t272 49.5t272 -49.5t232.5 -141t163.5 -236t61 -320.5t-61 -320.5t-163.5 -236.5t-232.5 -141.5t-272 -49.5t-272 49.5t-232.5 141.5t-163.5 236.5t-61 320.5zM293 717q0 -134 44.5 -243.5t119 -178t168 -105t196.5 -36.5
t197 36.5t168.5 105t119 178t44.5 243.5t-44.5 243t-119 177.5t-168.5 105.5t-197 37t-197 -37t-168 -105.5t-118.5 -177.5t-44.5 -243zM502 1743q0 51 35 87t86 36q52 0 88.5 -36t36.5 -87q0 -52 -36 -87.5t-89 -35.5q-51 0 -86 35.5t-35 87.5zM897 1743q0 51 35.5 87
t87.5 36q51 0 87 -36t36 -87q0 -52 -36 -87.5t-87 -35.5q-52 0 -87.5 35t-35.5 88z" />
    <glyph glyph-name="multiply" unicode="&#xd7;" horiz-adv-x="923" 
d="M61 305l285 287l-270 270l114 115l271 -272l282 282l119 -119l-282 -280l272 -273l-115 -114l-272 272l-285 -287z" />
    <glyph glyph-name="Oslash" unicode="&#xd8;" horiz-adv-x="1642" 
d="M92 717q0 176 61 320.5t163.5 236t232.5 141t272 49.5q179 0 338 -78l94 144l148 -96l-94 -144q115 -99 179 -244t64 -329q0 -176 -61 -320.5t-163.5 -236.5t-232.5 -141.5t-272 -49.5q-182 0 -334 76l-94 -143l-151 98l94 143q-114 98 -179 244t-65 330zM293 717
q0 -256 151 -410l611 922q-114 51 -234 51q-103 0 -197 -37t-168 -105.5t-118.5 -177.5t-44.5 -243zM592 203q107 -49 229 -49q103 0 197 36.5t168.5 105t119 178t44.5 243.5q0 250 -152 409z" />
    <glyph glyph-name="Ugrave" unicode="&#xd9;" horiz-adv-x="1398" 
d="M174 487v947h193v-940q0 -160 90.5 -250t242.5 -90q154 0 243 90t89 250v940h193v-947q0 -166 -70.5 -285t-187.5 -176t-267 -57q-112 0 -207 33.5t-166.5 97t-112 163t-40.5 224.5zM403 1884h242l178 -309h-161z" />
    <glyph glyph-name="Uacute" unicode="&#xda;" horiz-adv-x="1398" 
d="M174 487v947h193v-940q0 -160 90.5 -250t242.5 -90q154 0 243 90t89 250v940h193v-947q0 -166 -70.5 -285t-187.5 -176t-267 -57q-112 0 -207 33.5t-166.5 97t-112 163t-40.5 224.5zM578 1575l178 309h241l-258 -309h-161z" />
    <glyph glyph-name="Ucircumflex" unicode="&#xdb;" horiz-adv-x="1398" 
d="M174 487v947h193v-940q0 -160 90.5 -250t242.5 -90q154 0 243 90t89 250v940h193v-947q0 -166 -70.5 -285t-187.5 -176t-267 -57q-112 0 -207 33.5t-166.5 97t-112 163t-40.5 224.5zM377 1589l213 295h219l213 -295h-180l-144 176l-143 -176h-178z" />
    <glyph glyph-name="Udieresis" unicode="&#xdc;" horiz-adv-x="1398" 
d="M174 487v947h193v-940q0 -160 90.5 -250t242.5 -90q154 0 243 90t89 250v940h193v-947q0 -166 -70.5 -285t-187.5 -176t-267 -57q-112 0 -207 33.5t-166.5 97t-112 163t-40.5 224.5zM379 1743q0 51 35 87t86 36q52 0 88.5 -36t36.5 -87q0 -52 -36 -87.5t-89 -35.5
q-51 0 -86 35.5t-35 87.5zM774 1743q0 51 35.5 87t87.5 36q51 0 87 -36t36 -87q0 -52 -36 -87.5t-87 -35.5q-53 0 -88 35t-35 88z" />
    <glyph glyph-name="Yacute" unicode="&#xdd;" horiz-adv-x="1380" 
d="M41 1434h221l430 -711l430 711h217l-548 -893v-541h-197v541zM575 1575l179 309h241l-258 -309h-162z" />
    <glyph glyph-name="Thorn" unicode="&#xde;" horiz-adv-x="1210" 
d="M184 0v1434h193v-205h323q130 0 234 -62t159.5 -164.5t55.5 -224.5q0 -188 -126 -318t-323 -130h-323v-330h-193zM377 508h291q129 0 204.5 76.5t75.5 193.5q0 118 -75.5 195.5t-204.5 77.5h-291v-543z" />
    <glyph glyph-name="germandbls" unicode="&#xdf;" horiz-adv-x="1296" 
d="M164 0v1059q0 198 121.5 314t332.5 116q198 0 333.5 -112.5t135.5 -291.5q0 -96 -45 -184t-124 -123q53 -15 103 -47t91.5 -78t66.5 -109.5t25 -133.5q0 -198 -127 -319.5t-329 -121.5q-134 0 -267 49v187q117 -62 267 -62q121 0 194.5 69.5t73.5 197.5
q0 109 -92.5 180.5t-247.5 71.5h-127v167h84q113 0 191.5 68.5t78.5 187.5q0 101 -78 165.5t-207 64.5q-121 0 -195.5 -66t-74.5 -190v-1059h-184z" />
    <glyph glyph-name="agrave" unicode="&#xe0;" horiz-adv-x="1067" 
d="M102 313q0 98 53.5 172t138.5 111t187 37q167 0 279 -62v105q0 76 -58 126t-167 50q-100 0 -200 -32.5t-175 -80.5v187q180 90 375 90q106 0 187 -29t128 -79.5t70.5 -114t23.5 -138.5v-655h-178v80q-49 -48 -123.5 -79.5t-161.5 -31.5q-169 0 -274 91.5t-105 252.5z
M252 1434h242l178 -310h-162zM295 313q0 -85 61.5 -135.5t157.5 -50.5q78 0 144 31t102 67v181q-34 27 -101.5 50t-144.5 23q-96 0 -157.5 -44t-61.5 -122z" />
    <glyph glyph-name="aacute" unicode="&#xe1;" horiz-adv-x="1067" 
d="M102 313q0 98 53.5 172t138.5 111t187 37q167 0 279 -62v105q0 76 -58 126t-167 50q-100 0 -200 -32.5t-175 -80.5v187q180 90 375 90q106 0 187 -29t128 -79.5t70.5 -114t23.5 -138.5v-655h-178v80q-49 -48 -123.5 -79.5t-161.5 -31.5q-169 0 -274 91.5t-105 252.5z
M295 313q0 -85 61.5 -135.5t157.5 -50.5q78 0 144 31t102 67v181q-34 27 -101.5 50t-144.5 23q-96 0 -157.5 -44t-61.5 -122zM426 1124l178 310h242l-258 -310h-162z" />
    <glyph glyph-name="acircumflex" unicode="&#xe2;" horiz-adv-x="1067" 
d="M102 313q0 98 53.5 172t138.5 111t187 37q167 0 279 -62v105q0 76 -58 126t-167 50q-100 0 -200 -32.5t-175 -80.5v187q180 90 375 90q106 0 187 -29t128 -79.5t70.5 -114t23.5 -138.5v-655h-178v80q-49 -48 -123.5 -79.5t-161.5 -31.5q-169 0 -274 91.5t-105 252.5z
M225 1139l213 295h219l213 -295h-180l-143 176l-144 -176h-178zM295 313q0 -85 61.5 -135.5t157.5 -50.5q78 0 144 31t102 67v181q-34 27 -101.5 50t-144.5 23q-96 0 -157.5 -44t-61.5 -122z" />
    <glyph glyph-name="atilde" unicode="&#xe3;" horiz-adv-x="1067" 
d="M102 313q0 98 53.5 172t138.5 111t187 37q167 0 279 -62v105q0 76 -58 126t-167 50q-100 0 -200 -32.5t-175 -80.5v187q180 90 375 90q106 0 187 -29t128 -79.5t70.5 -114t23.5 -138.5v-655h-178v80q-49 -48 -123.5 -79.5t-161.5 -31.5q-169 0 -274 91.5t-105 252.5z
M231 1178q0 125 53.5 189.5t147.5 64.5q26 0 53.5 -8.5t40 -15.5t43.5 -24l29 -16q60 -33 84 -33q61 0 61 92h134q0 -124 -51.5 -188.5t-147.5 -64.5q-63 0 -133 45l-31 18q-60 33 -86 33q-63 0 -63 -92h-134zM295 313q0 -85 61.5 -135.5t157.5 -50.5q78 0 144 31t102 67
v181q-34 27 -101.5 50t-144.5 23q-96 0 -157.5 -44t-61.5 -122z" />
    <glyph glyph-name="adieresis" unicode="&#xe4;" horiz-adv-x="1067" 
d="M102 313q0 98 53.5 172t138.5 111t187 37q167 0 279 -62v105q0 76 -58 126t-167 50q-100 0 -200 -32.5t-175 -80.5v187q180 90 375 90q106 0 187 -29t128 -79.5t70.5 -114t23.5 -138.5v-655h-178v80q-49 -48 -123.5 -79.5t-161.5 -31.5q-169 0 -274 91.5t-105 252.5z
M227 1292q0 51 35 87t86 36q52 0 88.5 -36t36.5 -87q0 -52 -36 -87.5t-89 -35.5q-51 0 -86 35.5t-35 87.5zM295 313q0 -85 61.5 -135.5t157.5 -50.5q78 0 144 31t102 67v181q-34 27 -101.5 50t-144.5 23q-96 0 -157.5 -44t-61.5 -122zM623 1292q0 51 35 87t87 36
q51 0 87 -36t36 -87q0 -52 -36 -87.5t-87 -35.5q-52 0 -87 35t-35 88z" />
    <glyph glyph-name="aring" unicode="&#xe5;" horiz-adv-x="1067" 
d="M102 313q0 98 53.5 172t138.5 111t187 37q167 0 279 -62v105q0 76 -58 126t-167 50q-100 0 -200 -32.5t-175 -80.5v187q180 90 375 90q106 0 187 -29t128 -79.5t70.5 -114t23.5 -138.5v-655h-178v80q-49 -48 -123.5 -79.5t-161.5 -31.5q-169 0 -274 91.5t-105 252.5z
M295 313q0 -85 61.5 -135.5t157.5 -50.5q78 0 144 31t102 67v181q-34 27 -101.5 50t-144.5 23q-96 0 -157.5 -44t-61.5 -122zM319 1333q0 94 68 160t160 66q94 0 161.5 -65.5t67.5 -160.5q0 -93 -67.5 -158t-161.5 -65q-92 0 -160 65t-68 158zM449 1333q0 -41 27.5 -69.5
t68.5 -28.5q43 0 71.5 28.5t28.5 69.5q0 42 -29 71.5t-71 29.5q-41 0 -68.5 -29.5t-27.5 -71.5z" />
    <glyph glyph-name="ae" unicode="&#xe6;" horiz-adv-x="1785" 
d="M102 313q0 98 53.5 172t138.5 111t187 37q167 0 279 -62v105q0 76 -58 126t-167 50q-100 0 -200 -32.5t-175 -80.5v187q180 90 375 90q247 0 350 -152q64 73 151 112.5t187 39.5q224 0 352.5 -147t128.5 -384q0 -41 -4 -65h-762q6 -122 94 -201.5t213 -79.5
q119 0 215 35.5t197 114.5v-183q-174 -137 -412 -137q-234 0 -366 156q-177 -156 -398 -156q-169 0 -274 91.5t-105 252.5zM295 313q0 -85 61.5 -135.5t157.5 -50.5q88 0 168 36t123 83q-33 80 -41 166q-40 26 -108 46.5t-142 20.5q-96 0 -157.5 -44t-61.5 -122zM944 580
h559q-3 120 -76.5 193t-203.5 73q-118 0 -195.5 -78t-83.5 -188z" />
    <glyph glyph-name="ccedilla" unicode="&#xe7;" horiz-adv-x="1017" 
d="M82 494q0 229 149 375.5t377 146.5q159 0 307 -70v-205q-140 95 -307 95q-61 0 -119 -22t-105.5 -63t-76 -107.5t-28.5 -149.5t28.5 -150t76 -108.5t105.5 -63.5t119 -22q169 0 307 94v-205q-130 -61 -262 -68l-51 -69q16 4 37 4q74 0 125 -48t51 -120q0 -78 -61 -131
t-179 -53q-87 0 -184 45v120q89 -49 182 -49q40 0 68.5 17.5t28.5 50.5q0 29 -24 47t-66 18q-33 0 -60 -10l-67 80l65 102q-194 30 -315 172t-121 347z" />
    <glyph glyph-name="egrave" unicode="&#xe8;" horiz-adv-x="1128" 
d="M82 496q0 115 39 213.5t105 165t154 104t185 37.5q224 0 353 -147t129 -384q0 -35 -5 -65h-761q6 -122 94 -201.5t213 -79.5q118 0 214 35.5t197 114.5v-183q-174 -137 -411 -137q-104 0 -195 34t-160.5 98.5t-110 166t-40.5 228.5zM283 1434h241l178 -310h-161zM287 580
h559q-3 120 -77 193t-204 73q-118 0 -195 -78t-83 -188z" />
    <glyph glyph-name="eacute" unicode="&#xe9;" horiz-adv-x="1128" 
d="M82 496q0 115 39 213.5t105 165t154 104t185 37.5q224 0 353 -147t129 -384q0 -35 -5 -65h-761q6 -122 94 -201.5t213 -79.5q118 0 214 35.5t197 114.5v-183q-174 -137 -411 -137q-104 0 -195 34t-160.5 98.5t-110 166t-40.5 228.5zM287 580h559q-3 120 -77 193t-204 73
q-118 0 -195 -78t-83 -188zM457 1124l178 310h242l-259 -310h-161z" />
    <glyph glyph-name="ecircumflex" unicode="&#xea;" horiz-adv-x="1128" 
d="M82 496q0 115 39 213.5t105 165t154 104t185 37.5q224 0 353 -147t129 -384q0 -35 -5 -65h-761q6 -122 94 -201.5t213 -79.5q118 0 214 35.5t197 114.5v-183q-174 -137 -411 -137q-104 0 -195 34t-160.5 98.5t-110 166t-40.5 228.5zM256 1139l213 295h219l213 -295h-180
l-143 176l-144 -176h-178zM287 580h559q-3 120 -77 193t-204 73q-118 0 -195 -78t-83 -188z" />
    <glyph glyph-name="edieresis" unicode="&#xeb;" horiz-adv-x="1128" 
d="M82 496q0 115 39 213.5t105 165t154 104t185 37.5q224 0 353 -147t129 -384q0 -35 -5 -65h-761q6 -122 94 -201.5t213 -79.5q118 0 214 35.5t197 114.5v-183q-174 -137 -411 -137q-104 0 -195 34t-160.5 98.5t-110 166t-40.5 228.5zM258 1292q0 51 35 87t86 36
q52 0 88.5 -36t36.5 -87q0 -52 -36 -87.5t-89 -35.5q-51 0 -86 35.5t-35 87.5zM287 580h559q-3 120 -77 193t-204 73q-118 0 -195 -78t-83 -188zM653 1292q0 51 35.5 87t87.5 36q51 0 87 -36t36 -87q0 -52 -36 -87.5t-87 -35.5q-52 0 -87.5 35.5t-35.5 87.5z" />
    <glyph glyph-name="igrave" unicode="&#xec;" horiz-adv-x="516" 
d="M-33 1434h242l178 -310h-162zM166 0v983h184v-983h-184z" />
    <glyph glyph-name="iacute" unicode="&#xed;" horiz-adv-x="516" 
d="M141 1124l178 310h242l-258 -310h-162zM166 0v983h184v-983h-184z" />
    <glyph glyph-name="icircumflex" unicode="&#xee;" horiz-adv-x="516" 
d="M-59 1139l213 295h219l213 -295h-180l-144 176l-143 -176h-178zM166 0v983h184v-983h-184z" />
    <glyph glyph-name="idieresis" unicode="&#xef;" horiz-adv-x="516" 
d="M-57 1292q0 51 34.5 87t85.5 36q52 0 88.5 -36t36.5 -87q0 -52 -36 -87.5t-89 -35.5q-51 0 -85.5 35.5t-34.5 87.5zM166 0v983h184v-983h-184zM338 1292q0 51 35.5 87t87.5 36q51 0 87 -36t36 -87q0 -52 -36 -87.5t-87 -35.5q-53 0 -88 35.5t-35 87.5z" />
    <glyph glyph-name="eth" unicode="&#xf0;" horiz-adv-x="1179" 
d="M82 473q0 220 147.5 361t360.5 141q138 0 254 -64q-29 98 -105.5 189.5t-189.5 154.5l-195 -196l-102 104l154 154q-119 33 -232 33v145q194 0 354 -55l199 196l102 -100l-159 -162q215 -125 321.5 -361.5t106.5 -539.5q0 -147 -69 -263t-184.5 -178.5t-254.5 -62.5
t-254.5 62.5t-184.5 178.5t-69 263zM276 473q0 -82 28 -147.5t74 -104t100.5 -58.5t111.5 -20t111 20t100 58.5t74 104t28 147.5t-27.5 146.5t-73 103t-100 58.5t-112.5 20q-57 0 -111.5 -20t-100.5 -58.5t-74 -103t-28 -146.5z" />
    <glyph glyph-name="ntilde" unicode="&#xf1;" 
d="M164 0v983h180v-94q123 127 297 127q72 0 137.5 -24t118 -69t84 -116t31.5 -158v-649h-185v602q0 109 -66.5 173.5t-162.5 64.5q-147 0 -250 -131v-709h-184zM297 1178q0 125 53.5 189.5t147.5 64.5q26 0 53.5 -8.5t40 -15.5t43.5 -24l29 -16q60 -33 84 -33q61 0 61 92
h133q0 -124 -51.5 -188.5t-147.5 -64.5q-63 0 -133 45l-30 18q-60 33 -86 33q-30 0 -47 -23.5t-17 -68.5h-133z" />
    <glyph glyph-name="ograve" unicode="&#xf2;" horiz-adv-x="1200" 
d="M82 494q0 225 147 373.5t371 148.5t371 -148.5t147 -373.5q0 -226 -147 -375.5t-371 -149.5t-371 149.5t-147 375.5zM276 494q0 -164 95 -257.5t229 -93.5t229 93.5t95 257.5q0 162 -95 255t-229 93t-229 -93t-95 -255zM303 1434h242l178 -310h-162z" />
    <glyph glyph-name="oacute" unicode="&#xf3;" horiz-adv-x="1200" 
d="M82 494q0 225 147 373.5t371 148.5t371 -148.5t147 -373.5q0 -226 -147 -375.5t-371 -149.5t-371 149.5t-147 375.5zM276 494q0 -164 95 -257.5t229 -93.5t229 93.5t95 257.5q0 162 -95 255t-229 93t-229 -93t-95 -255zM477 1124l178 310h242l-258 -310h-162z" />
    <glyph glyph-name="ocircumflex" unicode="&#xf4;" horiz-adv-x="1200" 
d="M82 494q0 225 147 373.5t371 148.5t371 -148.5t147 -373.5q0 -226 -147 -375.5t-371 -149.5t-371 149.5t-147 375.5zM276 494q0 -164 95 -257.5t229 -93.5t229 93.5t95 257.5q0 162 -95 255t-229 93t-229 -93t-95 -255zM276 1139l213 295h220l213 -295h-181l-143 176
l-143 -176h-179z" />
    <glyph glyph-name="otilde" unicode="&#xf5;" horiz-adv-x="1200" 
d="M82 494q0 225 147 373.5t371 148.5t371 -148.5t147 -373.5q0 -226 -147 -375.5t-371 -149.5t-371 149.5t-147 375.5zM276 494q0 -164 95 -257.5t229 -93.5t229 93.5t95 257.5q0 162 -95 255t-229 93t-229 -93t-95 -255zM283 1178q0 125 53 189.5t147 64.5q26 0 53.5 -8.5
t41 -15.5t43.5 -24l28 -16q60 -33 84 -33q62 0 62 92h133q0 -124 -51.5 -188.5t-147.5 -64.5q-63 0 -133 45l-31 18q-60 33 -86 33q-63 0 -63 -92h-133z" />
    <glyph glyph-name="odieresis" unicode="&#xf6;" horiz-adv-x="1200" 
d="M82 494q0 225 147 373.5t371 148.5t371 -148.5t147 -373.5q0 -226 -147 -375.5t-371 -149.5t-371 149.5t-147 375.5zM276 494q0 -164 95 -257.5t229 -93.5t229 93.5t95 257.5q0 162 -95 255t-229 93t-229 -93t-95 -255zM279 1292q0 51 34.5 87t85.5 36q52 0 88.5 -36
t36.5 -87q0 -52 -36 -87.5t-89 -35.5q-51 0 -85.5 35.5t-34.5 87.5zM674 1292q0 51 35.5 87t87.5 36q51 0 87 -36t36 -87q0 -52 -36 -87.5t-87 -35.5q-53 0 -88 35.5t-35 87.5z" />
    <glyph glyph-name="divide" unicode="&#xf7;" horiz-adv-x="935" 
d="M0 508v162h936v-162h-936zM348 268q0 50 34 84.5t85 34.5q49 0 84 -34.5t35 -84.5q0 -51 -34.5 -84.5t-84.5 -33.5q-51 0 -85 33.5t-34 84.5zM348 909q0 50 34 84.5t85 34.5q49 0 84 -35t35 -84q0 -51 -34.5 -84.5t-84.5 -33.5q-51 0 -85 33.5t-34 84.5z" />
    <glyph glyph-name="oslash" unicode="&#xf8;" horiz-adv-x="1200" 
d="M82 494q0 225 147 373.5t371 148.5q123 0 223 -47l78 116l127 -81l-78 -117q79 -72 123.5 -173.5t44.5 -219.5q0 -226 -147 -375.5t-371 -149.5q-119 0 -221 45l-76 -114l-131 84l76 116q-78 72 -122 173.5t-44 220.5zM276 494q0 -143 76 -238l373 563q-64 23 -125 23
q-134 0 -229 -93t-95 -255zM477 166q64 -23 123 -23q134 0 229 93.5t95 257.5q0 143 -76 235z" />
    <glyph glyph-name="ugrave" unicode="&#xf9;" 
d="M154 336v647h184v-600q0 -109 66.5 -173.5t162.5 -64.5q148 0 250 129v709h184v-983h-180v94q-121 -125 -297 -125q-72 0 -137.5 24t-118 69t-83.5 116t-31 158zM285 1434h241l179 -310h-162z" />
    <glyph glyph-name="uacute" unicode="&#xfa;" 
d="M154 336v647h184v-600q0 -109 66.5 -173.5t162.5 -64.5q148 0 250 129v709h184v-983h-180v94q-121 -125 -297 -125q-72 0 -137.5 24t-118 69t-83.5 116t-31 158zM459 1124l178 310h242l-258 -310h-162z" />
    <glyph glyph-name="ucircumflex" unicode="&#xfb;" 
d="M154 336v647h184v-600q0 -109 66.5 -173.5t162.5 -64.5q148 0 250 129v709h184v-983h-180v94q-121 -125 -297 -125q-72 0 -137.5 24t-118 69t-83.5 116t-31 158zM258 1139l213 295h219l213 -295h-180l-143 176l-144 -176h-178z" />
    <glyph glyph-name="udieresis" unicode="&#xfc;" 
d="M154 336v647h184v-600q0 -109 66.5 -173.5t162.5 -64.5q148 0 250 129v709h184v-983h-180v94q-121 -125 -297 -125q-72 0 -137.5 24t-118 69t-83.5 116t-31 158zM260 1292q0 51 35 87t86 36q52 0 88.5 -36t36.5 -87q0 -52 -36 -87.5t-89 -35.5q-51 0 -86 35.5t-35 87.5z
M655 1292q0 51 35.5 87t87.5 36q51 0 87 -36t36 -87q0 -52 -36 -87.5t-87 -35.5q-52 0 -87.5 35.5t-35.5 87.5z" />
    <glyph glyph-name="yacute" unicode="&#xfd;" horiz-adv-x="1093" 
d="M20 983h213l318 -678l305 678h217l-657 -1395h-217l256 521zM436 1124l178 310h242l-258 -310h-162z" />
    <glyph glyph-name="thorn" unicode="&#xfe;" horiz-adv-x="1222" 
d="M164 -387v1872h184v-604q131 135 322 135q141 0 249.5 -70t165 -187.5t56.5 -262.5q0 -147 -56.5 -266t-165 -190t-249.5 -71q-189 0 -322 137v-493h-184zM348 307q50 -71 124 -117.5t165 -46.5q142 0 225.5 95t83.5 258q0 160 -83.5 253t-225.5 93q-91 0 -165.5 -46
t-123.5 -116v-373z" />
    <glyph glyph-name="ydieresis" unicode="&#xff;" horiz-adv-x="1093" 
d="M20 983h213l318 -678l305 678h217l-657 -1395h-217l256 521zM238 1292q0 51 34.5 87t85.5 36q52 0 88.5 -36t36.5 -87q0 -52 -36 -87.5t-89 -35.5q-51 0 -85.5 35.5t-34.5 87.5zM633 1292q0 51 35.5 87t87.5 36q51 0 87 -36t36 -87q0 -52 -36 -87.5t-87 -35.5
q-52 0 -87.5 35.5t-35.5 87.5z" />
    <glyph glyph-name="Amacron" unicode="&#x100;" horiz-adv-x="1394" 
d="M20 0l576 1434h203l575 -1434h-211l-145 367h-645l-144 -367h-209zM418 1673v166h559v-166h-559zM442 545h504l-254 641z" />
    <glyph glyph-name="amacron" unicode="&#x101;" horiz-adv-x="1067" 
d="M102 313q0 98 53.5 172t138.5 111t187 37q167 0 279 -62v105q0 76 -58 126t-167 50q-100 0 -200 -32.5t-175 -80.5v187q180 90 375 90q106 0 187 -29t128 -79.5t70.5 -114t23.5 -138.5v-655h-178v80q-49 -48 -123.5 -79.5t-161.5 -31.5q-169 0 -274 91.5t-105 252.5z
M272 1223v166h559v-166h-559zM295 313q0 -85 61.5 -135.5t157.5 -50.5q78 0 144 31t102 67v181q-34 27 -101.5 50t-144.5 23q-96 0 -157.5 -44t-61.5 -122z" />
    <glyph glyph-name="Abreve" unicode="&#x102;" horiz-adv-x="1394" 
d="M20 0l576 1434h203l575 -1434h-211l-145 367h-645l-144 -367h-209zM383 1884h149q3 -60 44.5 -101.5t115.5 -41.5q73 0 115 42t45 101h149q-2 -129 -83 -210t-226 -81q-141 0 -224 81.5t-85 209.5zM442 545h504l-254 641z" />
    <glyph glyph-name="abreve" unicode="&#x103;" horiz-adv-x="1067" 
d="M102 313q0 98 53.5 172t138.5 111t187 37q167 0 279 -62v105q0 76 -58 126t-167 50q-100 0 -200 -32.5t-175 -80.5v187q180 90 375 90q106 0 187 -29t128 -79.5t70.5 -114t23.5 -138.5v-655h-178v80q-49 -48 -123.5 -79.5t-161.5 -31.5q-169 0 -274 91.5t-105 252.5z
M238 1434h149q3 -60 44.5 -102t115.5 -42q73 0 115 42.5t45 101.5h149q-2 -129 -83 -210t-226 -81q-141 0 -224 81.5t-85 209.5zM295 313q0 -85 61.5 -135.5t157.5 -50.5q78 0 144 31t102 67v181q-34 27 -101.5 50t-144.5 23q-96 0 -157.5 -44t-61.5 -122z" />
    <glyph glyph-name="Aogonek" unicode="&#x104;" horiz-adv-x="1394" 
d="M20 0l576 1434h203l575 -1434q-184 -87 -184 -203q0 -48 36 -72t83 -24q28 0 65 14v-145q-43 -16 -102 -16q-101 0 -173.5 56t-72.5 150q0 147 154 240h-17l-145 367h-645l-144 -367h-209zM442 545h504l-254 641z" />
    <glyph glyph-name="aogonek" unicode="&#x105;" horiz-adv-x="1067" 
d="M102 313q0 98 53.5 172t138.5 111t187 37q167 0 279 -62v105q0 76 -58 126t-167 50q-100 0 -200 -32.5t-175 -80.5v187q180 90 375 90q106 0 187 -29t128 -79.5t70.5 -114t23.5 -138.5v-655q-184 -87 -184 -203q0 -48 35.5 -72t83.5 -24q28 0 65 14v-145
q-43 -16 -102 -16q-101 0 -173.5 56t-72.5 150q0 86 48.5 148t121.5 102v70q-49 -48 -123.5 -79.5t-161.5 -31.5q-169 0 -274 91.5t-105 252.5zM295 313q0 -85 61.5 -135.5t157.5 -50.5q78 0 144 31t102 67v181q-34 27 -101.5 50t-144.5 23q-96 0 -157.5 -44t-61.5 -122z
" />
    <glyph glyph-name="Cacute" unicode="&#x106;" horiz-adv-x="1390" 
d="M92 717q0 145 40 268t109.5 210t163 148.5t199.5 91t219 29.5q142 0 253 -33t233 -98v-205q-243 154 -486 154q-81 0 -156.5 -21t-144 -66.5t-119 -110.5t-80.5 -159.5t-30 -207.5t30 -207.5t80.5 -159.5t119 -110.5t144 -66.5t156.5 -21q244 0 486 153v-205
q-122 -65 -233 -98t-253 -33t-272 48t-233 139t-164.5 236t-61.5 325zM700 1575l179 309h241l-258 -309h-162z" />
    <glyph glyph-name="cacute" unicode="&#x107;" horiz-adv-x="1017" 
d="M82 494q0 229 149 375.5t377 146.5q159 0 307 -70v-205q-140 95 -307 95q-61 0 -119 -22t-105.5 -63t-76 -107.5t-28.5 -149.5t28.5 -150t76 -108.5t105.5 -63.5t119 -22q169 0 307 94v-205q-148 -70 -307 -70q-228 0 -377 148t-149 377zM467 1124l178 310h242l-258 -310
h-162z" />
    <glyph glyph-name="Ccircumflex" unicode="&#x108;" horiz-adv-x="1390" 
d="M92 717q0 145 40 268t109.5 210t163 148.5t199.5 91t219 29.5q142 0 253 -33t233 -98v-205q-243 154 -486 154q-81 0 -156.5 -21t-144 -66.5t-119 -110.5t-80.5 -159.5t-30 -207.5t30 -207.5t80.5 -159.5t119 -110.5t144 -66.5t156.5 -21q244 0 486 153v-205
q-122 -65 -233 -98t-253 -33t-272 48t-233 139t-164.5 236t-61.5 325zM500 1589l213 295h219l213 -295h-180l-144 176l-143 -176h-178z" />
    <glyph glyph-name="ccircumflex" unicode="&#x109;" horiz-adv-x="1017" 
d="M82 494q0 229 149 375.5t377 146.5q159 0 307 -70v-205q-140 95 -307 95q-61 0 -119 -22t-105.5 -63t-76 -107.5t-28.5 -149.5t28.5 -150t76 -108.5t105.5 -63.5t119 -22q169 0 307 94v-205q-148 -70 -307 -70q-228 0 -377 148t-149 377zM266 1139l213 295h219l213 -295
h-180l-143 176l-144 -176h-178z" />
    <glyph glyph-name="Cdotaccent" unicode="&#x10a;" horiz-adv-x="1390" 
d="M92 717q0 145 40 268t109.5 210t163 148.5t199.5 91t219 29.5q142 0 253 -33t233 -98v-205q-243 154 -486 154q-81 0 -156.5 -21t-144 -66.5t-119 -110.5t-80.5 -159.5t-30 -207.5t30 -207.5t80.5 -159.5t119 -110.5t144 -66.5t156.5 -21q244 0 486 153v-205
q-122 -65 -233 -98t-253 -33t-272 48t-233 139t-164.5 236t-61.5 325zM688 1808q0 59 38 98.5t95 39.5q58 0 96.5 -39.5t38.5 -98.5q0 -57 -38.5 -96t-96.5 -39q-57 0 -95 39t-38 96z" />
    <glyph glyph-name="cdotaccent" unicode="&#x10b;" horiz-adv-x="1017" 
d="M82 494q0 229 149 375.5t377 146.5q159 0 307 -70v-205q-140 95 -307 95q-61 0 -119 -22t-105.5 -63t-76 -107.5t-28.5 -149.5t28.5 -150t76 -108.5t105.5 -63.5t119 -22q169 0 307 94v-205q-148 -70 -307 -70q-228 0 -377 148t-149 377zM455 1358q0 59 38 98t95 39
q58 0 96.5 -39t38.5 -98q0 -57 -38.5 -96t-96.5 -39q-57 0 -95 39t-38 96z" />
    <glyph glyph-name="Ccaron" unicode="&#x10c;" horiz-adv-x="1390" 
d="M92 717q0 145 40 268t109.5 210t163 148.5t199.5 91t219 29.5q142 0 253 -33t233 -98v-205q-243 154 -486 154q-81 0 -156.5 -21t-144 -66.5t-119 -110.5t-80.5 -159.5t-30 -207.5t30 -207.5t80.5 -159.5t119 -110.5t144 -66.5t156.5 -21q244 0 486 153v-205
q-122 -65 -233 -98t-253 -33t-272 48t-233 139t-164.5 236t-61.5 325zM526 1884h179l143 -176l143 176h180l-213 -295h-219z" />
    <glyph glyph-name="ccaron" unicode="&#x10d;" horiz-adv-x="1017" 
d="M82 494q0 229 149 375.5t377 146.5q159 0 307 -70v-205q-140 95 -307 95q-61 0 -119 -22t-105.5 -63t-76 -107.5t-28.5 -149.5t28.5 -150t76 -108.5t105.5 -63.5t119 -22q169 0 307 94v-205q-148 -70 -307 -70q-228 0 -377 148t-149 377zM293 1434h178l143 -177l144 177
h180l-213 -295h-219z" />
    <glyph glyph-name="Dcaron" unicode="&#x10e;" horiz-adv-x="1460" 
d="M184 0v1434h500q140 0 263 -46.5t217.5 -134.5t149 -227t54.5 -313q0 -173 -55.5 -311t-150.5 -224.5t-218.5 -132t-263.5 -45.5h-496zM377 178h297q102 0 190 33t156.5 97t107.5 168t39 237q0 134 -38.5 239t-106 170.5t-155 99t-189.5 33.5h-301v-1077zM397 1884h178
l144 -176l143 176h180l-213 -295h-219z" />
    <glyph glyph-name="dcaron" unicode="&#x10f;" horiz-adv-x="1228" 
d="M82 496q0 145 56.5 262.5t165 187.5t249.5 70q190 0 321 -135v604h185v-1485h-185v106q-133 -137 -321 -137q-141 0 -249.5 71t-165 190t-56.5 266zM276 496q0 -163 84 -258t226 -95q91 0 164.5 46.5t123.5 117.5v373q-50 71 -123.5 116.5t-164.5 45.5q-142 0 -226 -93
t-84 -253zM1149 1135l35 350h221l-115 -350h-141z" />
    <glyph glyph-name="Dcroat" unicode="&#x110;" horiz-adv-x="1615" 
d="M184 641v168h156v625h500q140 0 263 -46.5t217.5 -134.5t149 -227t54.5 -313q0 -173 -55.5 -311t-150.5 -224.5t-218.5 -132t-263.5 -45.5h-496v641h-156zM532 178h297q102 0 190.5 33t157 97t107.5 168t39 237q0 134 -38.5 239t-106 170.5t-155 99t-189.5 33.5h-302
v-446h394v-168h-394v-463z" />
    <glyph glyph-name="dcroat" unicode="&#x111;" horiz-adv-x="1349" 
d="M82 496q0 145 56.5 262.5t165 187.5t249.5 70q190 0 321 -135v284h-301v154h301v166h185v-166h137v-154h-137v-1165h-185v106q-133 -137 -321 -137q-141 0 -249.5 71t-165 190t-56.5 266zM276 496q0 -163 84 -258t226 -95q91 0 164.5 46.5t123.5 117.5v373
q-50 71 -123.5 116.5t-164.5 45.5q-142 0 -226 -93t-84 -253z" />
    <glyph glyph-name="Emacron" unicode="&#x112;" horiz-adv-x="1181" 
d="M184 0v1434h875v-179h-682v-446h618v-178h-618v-453h682v-178h-875zM385 1673v166h559v-166h-559z" />
    <glyph glyph-name="emacron" unicode="&#x113;" horiz-adv-x="1128" 
d="M82 496q0 115 39 213.5t105 165t154 104t185 37.5q224 0 353 -147t129 -384q0 -35 -5 -65h-761q6 -122 94 -201.5t213 -79.5q118 0 214 35.5t197 114.5v-183q-174 -137 -411 -137q-104 0 -195 34t-160.5 98.5t-110 166t-40.5 228.5zM287 580h559q-3 120 -77 193t-204 73
q-118 0 -195 -78t-83 -188zM303 1223v166h559v-166h-559z" />
    <glyph glyph-name="Ebreve" unicode="&#x114;" horiz-adv-x="1181" 
d="M184 0v1434h875v-179h-682v-446h618v-178h-618v-453h682v-178h-875zM350 1884h150q3 -60 44 -101.5t115 -41.5q73 0 115 42t45 101h150q-2 -129 -83.5 -210t-226.5 -81q-141 0 -224 81.5t-85 209.5z" />
    <glyph glyph-name="ebreve" unicode="&#x115;" horiz-adv-x="1128" 
d="M82 496q0 115 39 213.5t105 165t154 104t185 37.5q224 0 353 -147t129 -384q0 -35 -5 -65h-761q6 -122 94 -201.5t213 -79.5q118 0 214 35.5t197 114.5v-183q-174 -137 -411 -137q-104 0 -195 34t-160.5 98.5t-110 166t-40.5 228.5zM268 1434h150q3 -60 44.5 -102
t115.5 -42q73 0 114.5 42.5t44.5 101.5h150q-2 -129 -83 -210t-226 -81q-142 0 -225 81.5t-85 209.5zM287 580h559q-3 120 -77 193t-204 73q-118 0 -195 -78t-83 -188z" />
    <glyph glyph-name="Edotaccent" unicode="&#x116;" horiz-adv-x="1181" 
d="M184 0v1434h875v-179h-682v-446h618v-178h-618v-453h682v-178h-875zM526 1808q0 59 38 98.5t95 39.5q58 0 97 -39.5t39 -98.5q0 -57 -39 -96t-97 -39q-57 0 -95 39t-38 96z" />
    <glyph glyph-name="edotaccent" unicode="&#x117;" horiz-adv-x="1128" 
d="M82 496q0 115 39 213.5t105 165t154 104t185 37.5q224 0 353 -147t129 -384q0 -35 -5 -65h-761q6 -122 94 -201.5t213 -79.5q118 0 214 35.5t197 114.5v-183q-174 -137 -411 -137q-104 0 -195 34t-160.5 98.5t-110 166t-40.5 228.5zM287 580h559q-3 120 -77 193t-204 73
q-118 0 -195 -78t-83 -188zM444 1358q0 58 38.5 97.5t95.5 39.5q58 0 96.5 -39t38.5 -98q0 -57 -38.5 -96t-96.5 -39q-57 0 -95.5 39t-38.5 96z" />
    <glyph glyph-name="Eogonek" unicode="&#x118;" horiz-adv-x="1181" 
d="M184 0v1434h875v-179h-682v-446h618v-178h-618v-453h682v-178q-185 -88 -185 -203q0 -48 35.5 -72t83.5 -24q29 0 66 14v-145q-43 -16 -103 -16q-101 0 -173 56t-72 150q0 148 153 240h-680z" />
    <glyph glyph-name="eogonek" unicode="&#x119;" horiz-adv-x="1128" 
d="M82 496q0 115 39 213.5t105 165t154 104t185 37.5q224 0 353 -147t129 -384q0 -35 -5 -65h-761q6 -122 94 -201.5t213 -79.5q118 0 214 35.5t197 114.5v-183q-90 -72 -202 -106q-183 -87 -183 -203q0 -48 36 -72t83 -24q29 0 66 14v-145q-43 -16 -103 -16q-101 0 -173 56
t-72 150q0 123 108 209q-100 5 -185.5 41t-151 100.5t-103 163.5t-37.5 222zM287 580h559q-3 120 -77 193t-204 73q-118 0 -195 -78t-83 -188z" />
    <glyph glyph-name="Ecaron" unicode="&#x11a;" horiz-adv-x="1181" 
d="M184 0v1434h875v-179h-682v-446h618v-178h-618v-453h682v-178h-875zM365 1884h178l143 -176l143 176h181l-213 -295h-219z" />
    <glyph glyph-name="ecaron" unicode="&#x11b;" horiz-adv-x="1128" 
d="M82 496q0 115 39 213.5t105 165t154 104t185 37.5q224 0 353 -147t129 -384q0 -35 -5 -65h-761q6 -122 94 -201.5t213 -79.5q118 0 214 35.5t197 114.5v-183q-174 -137 -411 -137q-104 0 -195 34t-160.5 98.5t-110 166t-40.5 228.5zM283 1434h178l143 -177l144 177h180
l-213 -295h-219zM287 580h559q-3 120 -77 193t-204 73q-118 0 -195 -78t-83 -188z" />
    <glyph glyph-name="Gcircumflex" unicode="&#x11c;" horiz-adv-x="1492" 
d="M92 717q0 145 40 268t109.5 210t163 148.5t199.5 91t219 29.5q142 0 253 -33t233 -98v-205q-243 154 -486 154q-81 0 -156.5 -21t-144 -66.5t-119 -110.5t-80.5 -159.5t-30 -207.5t30 -207.5t80.5 -159t119 -109.5t144 -66t156.5 -21q154 0 297 61v317h-495v179h684v-611
q-122 -65 -233 -98t-253 -33t-272 48t-233 139t-164.5 236t-61.5 325zM500 1589l213 295h219l213 -295h-180l-144 176l-143 -176h-178z" />
    <glyph glyph-name="gcircumflex" unicode="&#x11d;" horiz-adv-x="1181" 
d="M82 516q0 227 131.5 363.5t329.5 136.5q109 0 193 -37.5t138 -97.5v102h185v-958q0 -95 -27.5 -176.5t-85.5 -148t-158.5 -104.5t-234.5 -38q-118 0 -226 35t-184 83v193q97 -68 207 -103.5t203 -35.5q321 0 321 295v127q-54 -61 -138 -98.5t-193 -37.5
q-198 0 -329.5 136.5t-131.5 363.5zM276 516q0 -85 24.5 -150t67 -102t94.5 -55.5t113 -18.5q91 0 171 46.5t128 115.5v328q-44 68 -125 115t-174 47q-125 0 -212 -86t-87 -240zM276 1139l213 295h220l213 -295h-181l-143 176l-143 -176h-179z" />
    <glyph glyph-name="Gbreve" unicode="&#x11e;" horiz-adv-x="1492" 
d="M92 717q0 145 40 268t109.5 210t163 148.5t199.5 91t219 29.5q142 0 253 -33t233 -98v-205q-243 154 -486 154q-81 0 -156.5 -21t-144 -66.5t-119 -110.5t-80.5 -159.5t-30 -207.5t30 -207.5t80.5 -159t119 -109.5t144 -66t156.5 -21q154 0 297 61v317h-495v179h684v-611
q-122 -65 -233 -98t-253 -33t-272 48t-233 139t-164.5 236t-61.5 325zM512 1884h150q3 -60 44 -101.5t115 -41.5q73 0 115 42t45 101h149q-2 -129 -83 -210t-226 -81q-141 0 -224 81.5t-85 209.5z" />
    <glyph glyph-name="gbreve" unicode="&#x11f;" horiz-adv-x="1181" 
d="M82 516q0 227 131.5 363.5t329.5 136.5q109 0 193 -37.5t138 -97.5v102h185v-958q0 -95 -27.5 -176.5t-85.5 -148t-158.5 -104.5t-234.5 -38q-118 0 -226 35t-184 83v193q97 -68 207 -103.5t203 -35.5q321 0 321 295v127q-54 -61 -138 -98.5t-193 -37.5
q-198 0 -329.5 136.5t-131.5 363.5zM276 516q0 -85 24.5 -150t67 -102t94.5 -55.5t113 -18.5q91 0 171 46.5t128 115.5v328q-44 68 -125 115t-174 47q-125 0 -212 -86t-87 -240zM289 1434h149q3 -60 44.5 -102t115.5 -42q73 0 115 42.5t45 101.5h149q-2 -129 -83 -210
t-226 -81q-141 0 -224 81.5t-85 209.5z" />
    <glyph glyph-name="Gdotaccent" unicode="&#x120;" horiz-adv-x="1492" 
d="M92 717q0 145 40 268t109.5 210t163 148.5t199.5 91t219 29.5q142 0 253 -33t233 -98v-205q-243 154 -486 154q-81 0 -156.5 -21t-144 -66.5t-119 -110.5t-80.5 -159.5t-30 -207.5t30 -207.5t80.5 -159t119 -109.5t144 -66t156.5 -21q154 0 297 61v317h-495v179h684v-611
q-122 -65 -233 -98t-253 -33t-272 48t-233 139t-164.5 236t-61.5 325zM688 1808q0 59 38 98.5t95 39.5q58 0 96.5 -39.5t38.5 -98.5q0 -57 -38.5 -96t-96.5 -39q-57 0 -95 39t-38 96z" />
    <glyph glyph-name="gdotaccent" unicode="&#x121;" horiz-adv-x="1181" 
d="M82 516q0 227 131.5 363.5t329.5 136.5q109 0 193 -37.5t138 -97.5v102h185v-958q0 -95 -27.5 -176.5t-85.5 -148t-158.5 -104.5t-234.5 -38q-118 0 -226 35t-184 83v193q97 -68 207 -103.5t203 -35.5q321 0 321 295v127q-54 -61 -138 -98.5t-193 -37.5
q-198 0 -329.5 136.5t-131.5 363.5zM276 516q0 -85 24.5 -150t67 -102t94.5 -55.5t113 -18.5q91 0 171 46.5t128 115.5v328q-44 68 -125 115t-174 47q-125 0 -212 -86t-87 -240zM465 1358q0 59 38 98t95 39q58 0 96.5 -39t38.5 -98q0 -57 -38.5 -96t-96.5 -39q-57 0 -95 39
t-38 96z" />
    <glyph glyph-name="uni0122" unicode="&#x122;" horiz-adv-x="1492" 
d="M92 717q0 145 40 268t109.5 210t163 148.5t199.5 91t219 29.5q142 0 253 -33t233 -98v-205q-243 154 -486 154q-81 0 -156.5 -21t-144 -66.5t-119 -110.5t-80.5 -159.5t-30 -207.5t30 -207.5t80.5 -159t119 -109.5t144 -66t156.5 -21q154 0 297 61v317h-495v179h684v-611
q-122 -65 -233 -98t-253 -33t-272 48t-233 139t-164.5 236t-61.5 325zM680 -446l35 350h221l-115 -350h-141z" />
    <glyph glyph-name="uni0123" unicode="&#x123;" horiz-adv-x="1181" 
d="M82 516q0 227 131.5 363.5t329.5 136.5q109 0 193 -37.5t138 -97.5v102h185v-958q0 -95 -27.5 -176.5t-85.5 -148t-158.5 -104.5t-234.5 -38q-118 0 -226 35t-184 83v193q97 -68 207 -103.5t203 -35.5q321 0 321 295v127q-54 -61 -138 -98.5t-193 -37.5
q-198 0 -329.5 136.5t-131.5 363.5zM276 516q0 -85 24.5 -150t67 -102t94.5 -55.5t113 -18.5q91 0 171 46.5t128 115.5v328q-44 68 -125 115t-174 47q-125 0 -212 -86t-87 -240zM471 1112l115 350h141l-35 -350h-221z" />
    <glyph glyph-name="Hcircumflex" unicode="&#x124;" horiz-adv-x="1495" 
d="M184 0v1434h193v-615h741v615h193v-1434h-193v641h-741v-641h-193zM422 1589l213 295h219l213 -295h-180l-144 176l-143 -176h-178z" />
    <glyph glyph-name="hcircumflex" unicode="&#x125;" horiz-adv-x="1163" 
d="M-68 1640l213 295h220l213 -295h-181l-143 177l-143 -177h-179zM164 0v1485h184v-592q123 123 297 123q97 0 180.5 -40.5t139 -126t55.5 -200.5v-649h-184v602q0 108 -68.5 173t-165.5 65q-151 0 -254 -131v-709h-184z" />
    <glyph glyph-name="Hbar" unicode="&#x126;" horiz-adv-x="1699" 
d="M184 1059v147h103v228h192v-228h742v228h192v-228h103v-147h-103v-1059h-192v641h-742v-641h-192v1059h-103zM479 819h742v240h-742v-240z" />
    <glyph glyph-name="hbar" unicode="&#x127;" horiz-adv-x="1163" 
d="M27 1165v154h137v166h184v-166h301v-154h-301v-272q123 123 297 123q97 0 180.5 -40.5t139 -126t55.5 -200.5v-649h-184v602q0 108 -68.5 173t-165.5 65q-151 0 -254 -131v-709h-184v1165h-137z" />
    <glyph glyph-name="Itilde" unicode="&#x128;" horiz-adv-x="561" 
d="M-31 1628q0 125 53.5 189.5t147.5 64.5q26 0 52.5 -8t41 -15.5t43.5 -23.5l29 -16q60 -33 84 -33q61 0 61 92h133q0 -124 -51 -189t-147 -65q-63 0 -133 45l-31 19q-58 32 -86 32q-30 0 -47 -23.5t-17 -68.5h-133zM184 0v1434h193v-1434h-193z" />
    <glyph glyph-name="itilde" unicode="&#x129;" horiz-adv-x="516" 
d="M-53 1178q0 125 53 189.5t147 64.5q26 0 53.5 -8.5t41 -15.5t43.5 -24l28 -16q60 -33 84 -33q62 0 62 92h133q0 -124 -51.5 -188.5t-147.5 -64.5q-63 0 -133 45l-31 18q-60 33 -86 33q-63 0 -63 -92h-133zM166 0v983h184v-983h-184z" />
    <glyph glyph-name="Imacron" unicode="&#x12a;" horiz-adv-x="561" 
d="M10 1673v166h559v-166h-559zM184 0v1434h193v-1434h-193z" />
    <glyph glyph-name="imacron" unicode="&#x12b;" horiz-adv-x="516" 
d="M-12 1223v166h559v-166h-559zM166 0v983h184v-983h-184z" />
    <glyph glyph-name="Ibreve" unicode="&#x12c;" horiz-adv-x="561" 
d="M-25 1884h150q3 -60 44.5 -101.5t115.5 -41.5q73 0 114.5 42t44.5 101h150q-2 -129 -83 -210t-226 -81q-142 0 -225 81.5t-85 209.5zM184 0v1434h193v-1434h-193z" />
    <glyph glyph-name="ibreve" unicode="&#x12d;" horiz-adv-x="516" 
d="M-47 1434h149q3 -60 44.5 -102t115.5 -42q73 0 115 42.5t45 101.5h149q-2 -129 -83 -210t-226 -81q-141 0 -224 81.5t-85 209.5zM166 0v983h184v-983h-184z" />
    <glyph glyph-name="Iogonek" unicode="&#x12e;" horiz-adv-x="561" 
d="M29 -240q0 149 155 242v1432h193v-1434q-184 -87 -184 -203q0 -48 35.5 -72t82.5 -24q29 0 66 14v-145q-43 -16 -103 -16q-101 0 -173 56t-72 150z" />
    <glyph glyph-name="iogonek" unicode="&#x12f;" horiz-adv-x="516" 
d="M2 -240q0 83 47 145t117 101v977h184v-983q-184 -87 -184 -203q0 -48 35.5 -72t83.5 -24q28 0 65 14v-145q-43 -16 -102 -16q-101 0 -173.5 56t-72.5 150zM129 1358q0 59 38 98t95 39q58 0 96.5 -39t38.5 -98q0 -57 -38.5 -96t-96.5 -39q-57 0 -95 39t-38 96z" />
    <glyph glyph-name="Idotaccent" unicode="&#x130;" horiz-adv-x="561" 
d="M152 1808q0 59 38 98.5t95 39.5q58 0 96.5 -39.5t38.5 -98.5q0 -57 -38.5 -96t-96.5 -39q-57 0 -95 39t-38 96zM184 0v1434h193v-1434h-193z" />
    <glyph glyph-name="dotlessi" unicode="&#x131;" horiz-adv-x="516" 
d="M166 0v983h184v-983h-184z" />
    <glyph glyph-name="IJ" unicode="&#x132;" horiz-adv-x="1482" 
d="M184 0v1434h193v-1434h-193zM623 16v185q105 -47 247 -47q116 0 176 68.5t60 195.5v1016h192v-1016q0 -215 -107 -332t-321 -117q-137 0 -247 47z" />
    <glyph glyph-name="ij" unicode="&#x133;" horiz-adv-x="1038" 
d="M123 1358q0 59 38 98t95 39q58 0 96.5 -39t38.5 -98q0 -57 -38.5 -96t-96.5 -39q-57 0 -95 39t-38 96zM166 0v983h184v-983h-184zM473 -274q35 -7 68 -7q139 0 139 144v1120h184v-1120q0 -136 -72.5 -220.5t-197.5 -84.5q-79 0 -121 14v154zM637 1358q0 59 38 98t95 39
q58 0 96.5 -39t38.5 -98q0 -57 -38.5 -96t-96.5 -39q-57 0 -95 39t-38 96z" />
    <glyph glyph-name="Jcircumflex" unicode="&#x134;" horiz-adv-x="962" 
d="M102 16v185q105 -47 248 -47q116 0 176 68.5t60 195.5v1016h192v-1016q0 -215 -107 -332t-321 -117q-138 0 -248 47zM350 1589l213 295h219l213 -295h-180l-143 176l-144 -176h-178z" />
    <glyph glyph-name="jcircumflex" unicode="&#x135;" horiz-adv-x="524" 
d="M-61 1139l213 295h219l213 -295h-181l-143 176l-143 -176h-178zM-41 -274q35 -7 68 -7q139 0 139 144v1120h184v-1120q0 -136 -72.5 -220.5t-197.5 -84.5q-79 0 -121 14v154z" />
    <glyph glyph-name="uni0136" unicode="&#x136;" horiz-adv-x="1359" 
d="M184 0v1434h193v-709l682 709h262l-596 -611l604 -823h-239l-498 686l-215 -219v-467h-193zM598 -446l35 350h221l-115 -350h-141z" />
    <glyph glyph-name="uni0137" unicode="&#x137;" horiz-adv-x="1079" 
d="M164 0v1485h184v-916l443 414h260l-416 -385l424 -598h-236l-327 469l-148 -135v-334h-184zM451 -446l34 350h222l-115 -350h-141z" />
    <glyph glyph-name="kgreenlandic" unicode="&#x138;" horiz-adv-x="1079" 
d="M164 0v983h184v-414l443 414h260l-416 -385l424 -598h-236l-327 469l-148 -135v-334h-184z" />
    <glyph glyph-name="Lacute" unicode="&#x139;" horiz-adv-x="1165" 
d="M168 1575l178 309h242l-258 -309h-162zM184 0v1434h193v-1250h686v-184h-879z" />
    <glyph glyph-name="lacute" unicode="&#x13a;" horiz-adv-x="512" 
d="M133 1626l178 309h242l-258 -309h-162zM164 0v1485h184v-1485h-184z" />
    <glyph glyph-name="uni013B" unicode="&#x13b;" horiz-adv-x="1165" 
d="M184 0v1434h193v-1250h686v-184h-879zM516 -446l35 350h221l-115 -350h-141z" />
    <glyph glyph-name="uni013C" unicode="&#x13c;" horiz-adv-x="512" 
d="M115 -446l35 350h221l-115 -350h-141zM164 0v1485h184v-1485h-184z" />
    <glyph glyph-name="Lcaron" unicode="&#x13d;" horiz-adv-x="1165" 
d="M184 0v1434h193v-1250h686v-184h-879zM668 1083l34 351h222l-115 -351h-141z" />
    <glyph glyph-name="lcaron" unicode="&#x13e;" horiz-adv-x="577" 
d="M164 0v1485h184v-1485h-184zM444 1135l35 350h221l-114 -350h-142z" />
    <glyph glyph-name="Ldot" unicode="&#x13f;" horiz-adv-x="1114" 
d="M184 0v1434h193v-1250h686v-184h-879zM627 799q0 60 40.5 101.5t100.5 41.5t101.5 -41.5t41.5 -101.5t-41.5 -101t-101.5 -41t-100.5 41t-40.5 101z" />
    <glyph glyph-name="ldot" unicode="&#x140;" horiz-adv-x="835" 
d="M164 0v1485h184v-1485h-184zM489 702q0 60 41 102t101 42t101.5 -42t41.5 -102t-41.5 -100.5t-101.5 -40.5t-101 40.5t-41 100.5z" />
    <glyph glyph-name="Lslash" unicode="&#x141;" horiz-adv-x="1327" 
d="M184 467v182l162 76v709h193v-619l467 219v-178l-467 -221v-451h686v-184h-879v543z" />
    <glyph glyph-name="lslash" unicode="&#x142;" horiz-adv-x="841" 
d="M102 457v192l185 111v725h184v-613l268 162v-188l-268 -164v-682h-184v569z" />
    <glyph glyph-name="Nacute" unicode="&#x143;" horiz-adv-x="1538" 
d="M184 0v1434h240l741 -1092v1092h189v-1434h-197l-784 1182v-1182h-189zM682 1575l178 309h242l-258 -309h-162z" />
    <glyph glyph-name="nacute" unicode="&#x144;" 
d="M164 0v983h180v-94q123 127 297 127q72 0 137.5 -24t118 -69t84 -116t31.5 -158v-649h-185v602q0 109 -66.5 173.5t-162.5 64.5q-147 0 -250 -131v-709h-184zM492 1124l178 310h241l-258 -310h-161z" />
    <glyph glyph-name="uni0145" unicode="&#x145;" horiz-adv-x="1538" 
d="M184 0v1434h240l741 -1092v1092h189v-1434h-197l-784 1182v-1182h-189zM639 -446l35 350h221l-115 -350h-141z" />
    <glyph glyph-name="uni0146" unicode="&#x146;" 
d="M164 0v983h180v-94q123 127 297 127q72 0 137.5 -24t118 -69t84 -116t31.5 -158v-649h-185v602q0 109 -66.5 173.5t-162.5 64.5q-147 0 -250 -131v-709h-184zM457 -446l35 350h221l-115 -350h-141z" />
    <glyph glyph-name="Ncaron" unicode="&#x147;" horiz-adv-x="1538" 
d="M184 0v1434h240l741 -1092v1092h189v-1434h-197l-784 1182v-1182h-189zM508 1884h178l143 -176l144 176h180l-213 -295h-219z" />
    <glyph glyph-name="ncaron" unicode="&#x148;" 
d="M164 0v983h180v-94q123 127 297 127q72 0 137.5 -24t118 -69t84 -116t31.5 -158v-649h-185v602q0 109 -66.5 173.5t-162.5 64.5q-147 0 -250 -131v-709h-184zM317 1434h179l143 -177l143 177h181l-213 -295h-220z" />
    <glyph glyph-name="napostrophe" unicode="&#x149;" 
d="M-41 1075q82 238 100 461h230q-8 -115 -60.5 -243.5t-109.5 -217.5h-160zM164 0v983h180v-94q123 127 297 127q72 0 137.5 -24t118 -69t84 -116t31.5 -158v-649h-185v602q0 109 -66.5 173.5t-162.5 64.5q-147 0 -250 -131v-709h-184z" />
    <glyph glyph-name="Eng" unicode="&#x14a;" horiz-adv-x="1538" 
d="M184 0v1434h240l741 -1088v1088h189v-1448q0 -428 -428 -428q-138 0 -248 47v184q105 -47 248 -47q239 0 239 258l-792 1182v-1182h-189z" />
    <glyph glyph-name="eng" unicode="&#x14b;" 
d="M164 0v983h180v-94q123 127 297 127q72 0 137.5 -24t118 -69t84 -116t31.5 -158v-786q0 -136 -73 -220.5t-198 -84.5q-78 0 -120 14v154q35 -7 67 -7q139 0 139 144v739q0 109 -66.5 173.5t-162.5 64.5q-147 0 -250 -131v-709h-184z" />
    <glyph glyph-name="Omacron" unicode="&#x14c;" horiz-adv-x="1642" 
d="M92 717q0 176 61 320.5t163.5 236t232.5 141t272 49.5t272 -49.5t232.5 -141t163.5 -236t61 -320.5t-61 -320.5t-163.5 -236.5t-232.5 -141.5t-272 -49.5t-272 49.5t-232.5 141.5t-163.5 236.5t-61 320.5zM293 717q0 -134 44.5 -243.5t119 -178t168 -105t196.5 -36.5
t197 36.5t168.5 105t119 178t44.5 243.5t-44.5 243t-119 177.5t-168.5 105.5t-197 37t-197 -37t-168 -105.5t-118.5 -177.5t-44.5 -243zM547 1673v166h559v-166h-559z" />
    <glyph glyph-name="omacron" unicode="&#x14d;" horiz-adv-x="1200" 
d="M82 494q0 225 147 373.5t371 148.5t371 -148.5t147 -373.5q0 -226 -147 -375.5t-371 -149.5t-371 149.5t-147 375.5zM276 494q0 -164 95 -257.5t229 -93.5t229 93.5t95 257.5q0 162 -95 255t-229 93t-229 -93t-95 -255zM324 1223v166h559v-166h-559z" />
    <glyph glyph-name="Obreve" unicode="&#x14e;" horiz-adv-x="1642" 
d="M92 717q0 176 61 320.5t163.5 236t232.5 141t272 49.5t272 -49.5t232.5 -141t163.5 -236t61 -320.5t-61 -320.5t-163.5 -236.5t-232.5 -141.5t-272 -49.5t-272 49.5t-232.5 141.5t-163.5 236.5t-61 320.5zM293 717q0 -134 44.5 -243.5t119 -178t168 -105t196.5 -36.5
t197 36.5t168.5 105t119 178t44.5 243.5t-44.5 243t-119 177.5t-168.5 105.5t-197 37t-197 -37t-168 -105.5t-118.5 -177.5t-44.5 -243zM512 1884h150q3 -60 44 -101.5t115 -41.5q73 0 115 42t45 101h149q-2 -129 -83 -210t-226 -81q-141 0 -224 81.5t-85 209.5z" />
    <glyph glyph-name="obreve" unicode="&#x14f;" horiz-adv-x="1200" 
d="M82 494q0 225 147 373.5t371 148.5t371 -148.5t147 -373.5q0 -226 -147 -375.5t-371 -149.5t-371 149.5t-147 375.5zM276 494q0 -164 95 -257.5t229 -93.5t229 93.5t95 257.5q0 162 -95 255t-229 93t-229 -93t-95 -255zM289 1434h149q3 -60 44.5 -102t115.5 -42
q73 0 115 42.5t45 101.5h149q-2 -129 -83 -210t-226 -81q-141 0 -224 81.5t-85 209.5z" />
    <glyph glyph-name="Ohungarumlaut" unicode="&#x150;" horiz-adv-x="1642" 
d="M92 717q0 176 61 320.5t163.5 236t232.5 141t272 49.5t272 -49.5t232.5 -141t163.5 -236t61 -320.5t-61 -320.5t-163.5 -236.5t-232.5 -141.5t-272 -49.5t-272 49.5t-232.5 141.5t-163.5 236.5t-61 320.5zM293 717q0 -134 44.5 -243.5t119 -178t168 -105t196.5 -36.5
t197 36.5t168.5 105t119 178t44.5 243.5t-44.5 243t-119 177.5t-168.5 105.5t-197 37t-197 -37t-168 -105.5t-118.5 -177.5t-44.5 -243zM588 1575l104 309h215l-184 -309h-135zM856 1575l125 309h215l-205 -309h-135z" />
    <glyph glyph-name="ohungarumlaut" unicode="&#x151;" horiz-adv-x="1200" 
d="M82 494q0 225 147 373.5t371 148.5t371 -148.5t147 -373.5q0 -226 -147 -375.5t-371 -149.5t-371 149.5t-147 375.5zM276 494q0 -164 95 -257.5t229 -93.5t229 93.5t95 257.5q0 162 -95 255t-229 93t-229 -93t-95 -255zM365 1124l104 310h215l-184 -310h-135zM633 1124
l125 310h215l-205 -310h-135z" />
    <glyph glyph-name="OE" unicode="&#x152;" horiz-adv-x="2209" 
d="M92 717q0 176 61 320.5t163.5 236t232.5 141t272 49.5q111 0 219 -30h1047v-179h-744q177 -177 203 -446h477v-178h-477q-23 -273 -203 -453h744v-178h-1047q-112 -31 -219 -31q-142 0 -272 49.5t-232.5 141.5t-163.5 236.5t-61 320.5zM293 717q0 -134 44.5 -243.5
t119 -178t168 -105t196.5 -36.5t197 36.5t168.5 105t119 178t44.5 243.5t-44.5 243t-119 177.5t-168.5 105.5t-197 37t-197 -37t-168 -105.5t-118.5 -177.5t-44.5 -243z" />
    <glyph glyph-name="oe" unicode="&#x153;" horiz-adv-x="1970" 
d="M82 494q0 225 147 373.5t371 148.5q130 0 239 -54t179 -149q66 97 168 150t221 53q224 0 352.5 -147t128.5 -384q0 -41 -4 -65h-762q6 -122 94 -201.5t214 -79.5q118 0 214 35.5t197 114.5v-183q-174 -137 -411 -137q-130 0 -238 51.5t-176 149.5q-70 -95 -178 -148
t-238 -53q-224 0 -371 149.5t-147 375.5zM276 494q0 -164 95 -257.5t229 -93.5t229 93.5t95 257.5q0 162 -95 255t-229 93t-229 -93t-95 -255zM1128 580h560q-3 120 -77 193t-204 73q-118 0 -195.5 -78t-83.5 -188z" />
    <glyph glyph-name="Racute" unicode="&#x154;" horiz-adv-x="1261" 
d="M184 0v1434h516q201 0 330 -129.5t129 -313.5q0 -156 -81.5 -267t-221.5 -151l324 -573h-217l-304 553h-282v-553h-193zM377 731h307q133 0 203.5 71.5t70.5 188.5q0 116 -76 190t-198 74h-307v-524zM498 1575l178 309h242l-259 -309h-161z" />
    <glyph glyph-name="racute" unicode="&#x155;" horiz-adv-x="774" 
d="M164 0v983h180v-170q37 96 119.5 149.5t181.5 53.5q26 0 68 -6v-205q-44 6 -88 6q-112 0 -183 -60t-94 -141v-610h-184zM365 1124l178 310h241l-258 -310h-161z" />
    <glyph glyph-name="uni0156" unicode="&#x156;" horiz-adv-x="1261" 
d="M184 0v1434h516q201 0 330 -129.5t129 -313.5q0 -156 -81.5 -267t-221.5 -151l324 -573h-217l-304 553h-282v-553h-193zM377 731h307q133 0 203.5 71.5t70.5 188.5q0 116 -76 190t-198 74h-307v-524zM528 -446l35 350h221l-114 -350h-142z" />
    <glyph glyph-name="uni0157" unicode="&#x157;" horiz-adv-x="774" 
d="M164 0v983h180v-170q37 96 119.5 149.5t181.5 53.5q26 0 68 -6v-205q-44 6 -88 6q-112 0 -183 -60t-94 -141v-610h-184zM307 -446l35 350h221l-114 -350h-142z" />
    <glyph glyph-name="Rcaron" unicode="&#x158;" horiz-adv-x="1261" 
d="M184 0v1434h516q201 0 330 -129.5t129 -313.5q0 -156 -81.5 -267t-221.5 -151l324 -573h-217l-304 553h-282v-553h-193zM324 1884h178l143 -176l143 176h181l-213 -295h-219zM377 731h307q133 0 203.5 71.5t70.5 188.5q0 116 -76 190t-198 74h-307v-524z" />
    <glyph glyph-name="rcaron" unicode="&#x159;" horiz-adv-x="774" 
d="M164 0v983h180v-170q37 96 119.5 149.5t181.5 53.5q26 0 68 -6v-205q-44 6 -88 6q-112 0 -183 -60t-94 -141v-610h-184zM190 1434h179l143 -177l143 177h181l-213 -295h-220z" />
    <glyph glyph-name="Sacute" unicode="&#x15a;" horiz-adv-x="1218" 
d="M123 1059q0 83 34 156t96.5 128.5t159.5 88t216 32.5q195 0 393 -84v-196q-206 104 -393 104q-142 0 -226 -62t-84 -167q0 -170 187 -211l217 -47q181 -40 277 -146.5t96 -265.5q0 -82 -32 -157t-91 -134t-151.5 -94t-205.5 -35q-251 0 -483 125v193q102 -59 230.5 -99.5
t252.5 -40.5q143 0 211 66.5t68 175.5q0 80 -56 143.5t-161 85.5l-207 46q-348 76 -348 395zM508 1575l178 309h242l-258 -309h-162z" />
    <glyph glyph-name="sacute" unicode="&#x15b;" horiz-adv-x="925" 
d="M102 717q0 134 104 216.5t267 82.5q161 0 313 -68v-180q-162 84 -313 84q-93 0 -139.5 -37.5t-46.5 -97.5q0 -40 30 -72t89 -45l155 -35q133 -29 203 -103.5t70 -187.5q0 -143 -112.5 -224t-283.5 -81q-88 0 -178 23t-156 57v178q180 -94 334 -94q100 0 153.5 36
t53.5 105q0 47 -33.5 79t-95.5 46l-168 37q-119 26 -182.5 98.5t-63.5 182.5zM362 1124l179 310h241l-258 -310h-162z" />
    <glyph glyph-name="Scircumflex" unicode="&#x15c;" horiz-adv-x="1218" 
d="M123 1059q0 83 34 156t96.5 128.5t159.5 88t216 32.5q195 0 393 -84v-196q-206 104 -393 104q-142 0 -226 -62t-84 -167q0 -170 187 -211l217 -47q181 -40 277 -146.5t96 -265.5q0 -82 -32 -157t-91 -134t-151.5 -94t-205.5 -35q-251 0 -483 125v193q102 -59 230.5 -99.5
t252.5 -40.5q143 0 211 66.5t68 175.5q0 80 -56 143.5t-161 85.5l-207 46q-348 76 -348 395zM307 1589l213 295h219l213 -295h-180l-143 176l-144 -176h-178z" />
    <glyph glyph-name="scircumflex" unicode="&#x15d;" horiz-adv-x="925" 
d="M102 717q0 134 104 216.5t267 82.5q161 0 313 -68v-180q-162 84 -313 84q-93 0 -139.5 -37.5t-46.5 -97.5q0 -40 30 -72t89 -45l155 -35q133 -29 203 -103.5t70 -187.5q0 -143 -112.5 -224t-283.5 -81q-88 0 -178 23t-156 57v178q180 -94 334 -94q100 0 153.5 36
t53.5 105q0 47 -33.5 79t-95.5 46l-168 37q-119 26 -182.5 98.5t-63.5 182.5zM162 1139l213 295h219l213 -295h-180l-144 176l-143 -176h-178z" />
    <glyph glyph-name="Scedilla" unicode="&#x15e;" horiz-adv-x="1218" 
d="M123 1059q0 83 34 156t96.5 128.5t159.5 88t216 32.5q195 0 393 -84v-196q-206 104 -393 104q-142 0 -226 -62t-84 -167q0 -170 187 -211l217 -47q181 -40 277 -146.5t96 -265.5q0 -160 -112.5 -280t-309.5 -138l-51 -69q16 4 36 4q74 0 125.5 -48.5t51.5 -119.5
q0 -78 -61 -131t-179 -53q-87 0 -184 45v120q89 -49 182 -49q40 0 68 17.5t28 50.5q0 29 -24 47t-66 18q-32 0 -59 -10l-68 80l64 100q-202 14 -404 121v193q102 -59 230.5 -99.5t252.5 -40.5q143 0 211 66.5t68 175.5q0 80 -56 143.5t-161 85.5l-207 46q-348 76 -348 395z
" />
    <glyph glyph-name="scedilla" unicode="&#x15f;" horiz-adv-x="925" 
d="M102 717q0 134 104 216.5t267 82.5q161 0 313 -68v-180q-162 84 -313 84q-93 0 -139.5 -37.5t-46.5 -97.5q0 -40 30 -72t89 -45l155 -35q133 -29 203 -103.5t70 -187.5q0 -123 -85.5 -201t-222.5 -98l-55 -73q16 4 37 4q74 0 125 -48t51 -120q0 -78 -61 -131t-179 -53
q-87 0 -184 45v120q89 -49 182 -49q40 0 68.5 17.5t28.5 50.5q0 29 -24 47t-66 18q-33 0 -60 -10l-67 80l61 98q-154 12 -279 78v178q180 -94 334 -94q100 0 153.5 36t53.5 105q0 47 -33.5 79t-95.5 46l-168 37q-119 26 -182.5 98.5t-63.5 182.5z" />
    <glyph glyph-name="Scaron" unicode="&#x160;" horiz-adv-x="1218" 
d="M123 1059q0 83 34 156t96.5 128.5t159.5 88t216 32.5q195 0 393 -84v-196q-206 104 -393 104q-142 0 -226 -62t-84 -167q0 -170 187 -211l217 -47q181 -40 277 -146.5t96 -265.5q0 -82 -32 -157t-91 -134t-151.5 -94t-205.5 -35q-251 0 -483 125v193q102 -59 230.5 -99.5
t252.5 -40.5q143 0 211 66.5t68 175.5q0 80 -56 143.5t-161 85.5l-207 46q-348 76 -348 395zM334 1884h178l143 -176l144 176h180l-213 -295h-219z" />
    <glyph glyph-name="scaron" unicode="&#x161;" horiz-adv-x="925" 
d="M102 717q0 134 104 216.5t267 82.5q161 0 313 -68v-180q-162 84 -313 84q-93 0 -139.5 -37.5t-46.5 -97.5q0 -40 30 -72t89 -45l155 -35q133 -29 203 -103.5t70 -187.5q0 -143 -112.5 -224t-283.5 -81q-88 0 -178 23t-156 57v178q180 -94 334 -94q100 0 153.5 36
t53.5 105q0 47 -33.5 79t-95.5 46l-168 37q-119 26 -182.5 98.5t-63.5 182.5zM188 1434h179l143 -177l143 177h181l-213 -295h-220z" />
    <glyph glyph-name="uni0162" unicode="&#x162;" horiz-adv-x="1306" 
d="M82 1255v179h1143v-179h-475v-1255h-25l-74 -98q16 4 37 4q74 0 125 -48t51 -120q0 -78 -60.5 -131t-178.5 -53q-88 0 -185 45v120q89 -49 183 -49q40 0 68 17.5t28 50.5q0 29 -24 47t-66 18q-33 0 -60 -10l-67 80l80 127h-25v1255h-475z" />
    <glyph glyph-name="uni0163" unicode="&#x163;" horiz-adv-x="735" 
d="M41 819v164h190v291l172 102v-393h240v-164h-240v-549q0 -135 148 -135q49 0 92 15v-160q-13 -6 -53 -13t-80 -8l-51 -67q16 4 37 4q74 0 125 -48t51 -120q0 -78 -61 -131t-179 -53q-87 0 -184 45v120q89 -49 182 -49q40 0 68 17.5t28 50.5q0 29 -24 47t-66 18
q-32 0 -59 -10l-68 80l72 115q-77 27 -119.5 91.5t-42.5 162.5v577h-178z" />
    <glyph glyph-name="Tcaron" unicode="&#x164;" horiz-adv-x="1306" 
d="M82 1255v179h1143v-179h-475v-1255h-193v1255h-475zM358 1884h179l143 -176l143 176h181l-213 -295h-220z" />
    <glyph glyph-name="tcaron" unicode="&#x165;" horiz-adv-x="735" 
d="M41 819v164h190v291l172 102v-393h240v-164h-240v-549q0 -135 148 -135q49 0 92 15v-160q-56 -21 -147 -21q-128 0 -202.5 71t-74.5 202v577h-178zM537 1116l34 350h222l-115 -350h-141z" />
    <glyph glyph-name="Tbar" unicode="&#x166;" horiz-adv-x="1306" 
d="M82 1255v179h1143v-179h-475v-438h331v-158h-331v-659h-193v659h-332v158h332v438h-475z" />
    <glyph glyph-name="tbar" unicode="&#x167;" horiz-adv-x="735" 
d="M41 819v164h190v291l172 102v-393h240v-164h-240v-147h226v-154h-226v-248q0 -135 148 -135q49 0 92 15v-160q-56 -21 -147 -21q-128 0 -202.5 71t-74.5 202v276h-172v154h172v147h-178z" />
    <glyph glyph-name="Utilde" unicode="&#x168;" horiz-adv-x="1398" 
d="M174 487v947h193v-940q0 -160 90.5 -250t242.5 -90q154 0 243 90t89 250v940h193v-947q0 -166 -70.5 -285t-187.5 -176t-267 -57q-112 0 -207 33.5t-166.5 97t-112 163t-40.5 224.5zM383 1628q0 125 53.5 189.5t147.5 64.5q26 0 52.5 -8t41 -15.5t43.5 -23.5l29 -16
q60 -33 84 -33q61 0 61 92h133q0 -124 -51.5 -189t-147.5 -65q-63 0 -133 45l-30 19q-58 32 -86 32q-30 0 -47 -23.5t-17 -68.5h-133z" />
    <glyph glyph-name="utilde" unicode="&#x169;" 
d="M154 336v647h184v-600q0 -109 66.5 -173.5t162.5 -64.5q148 0 250 129v709h184v-983h-180v94q-121 -125 -297 -125q-72 0 -137.5 24t-118 69t-83.5 116t-31 158zM264 1178q0 125 53.5 189.5t147.5 64.5q26 0 53.5 -8.5t40 -15.5t43.5 -24l29 -16q60 -33 84 -33
q61 0 61 92h133q0 -124 -51 -188.5t-147 -64.5q-63 0 -133 45l-31 18q-60 33 -86 33q-30 0 -47 -23.5t-17 -68.5h-133z" />
    <glyph glyph-name="Umacron" unicode="&#x16a;" horiz-adv-x="1398" 
d="M174 487v947h193v-940q0 -160 90.5 -250t242.5 -90q154 0 243 90t89 250v940h193v-947q0 -166 -70.5 -285t-187.5 -176t-267 -57q-112 0 -207 33.5t-166.5 97t-112 163t-40.5 224.5zM424 1673v166h559v-166h-559z" />
    <glyph glyph-name="umacron" unicode="&#x16b;" 
d="M154 336v647h184v-600q0 -109 66.5 -173.5t162.5 -64.5q148 0 250 129v709h184v-983h-180v94q-121 -125 -297 -125q-72 0 -137.5 24t-118 69t-83.5 116t-31 158zM305 1223v166h559v-166h-559z" />
    <glyph glyph-name="Ubreve" unicode="&#x16c;" horiz-adv-x="1398" 
d="M174 487v947h193v-940q0 -160 90.5 -250t242.5 -90q154 0 243 90t89 250v940h193v-947q0 -166 -70.5 -285t-187.5 -176t-267 -57q-112 0 -207 33.5t-166.5 97t-112 163t-40.5 224.5zM389 1884h150q3 -60 44 -101.5t115 -41.5q73 0 115 42t45 101h150q-2 -129 -83.5 -210
t-226.5 -81q-141 0 -224 81.5t-85 209.5z" />
    <glyph glyph-name="ubreve" unicode="&#x16d;" 
d="M154 336v647h184v-600q0 -109 66.5 -173.5t162.5 -64.5q148 0 250 129v709h184v-983h-180v94q-121 -125 -297 -125q-72 0 -137.5 24t-118 69t-83.5 116t-31 158zM270 1434h150q3 -60 44.5 -102t115.5 -42q73 0 114.5 42.5t44.5 101.5h150q-2 -129 -83 -210t-226 -81
q-142 0 -225 81.5t-85 209.5z" />
    <glyph glyph-name="Uring" unicode="&#x16e;" horiz-adv-x="1398" 
d="M174 487v947h193v-940q0 -160 90.5 -250t242.5 -90q154 0 243 90t89 250v940h193v-947q0 -166 -70.5 -285t-187.5 -176t-267 -57q-112 0 -207 33.5t-166.5 97t-112 163t-40.5 224.5zM471 1784q0 94 67.5 159.5t159.5 65.5q95 0 162.5 -65.5t67.5 -159.5q0 -93 -68 -158
t-162 -65q-92 0 -159.5 65t-67.5 158zM600 1784q0 -41 27.5 -69.5t68.5 -28.5q43 0 72 28.5t29 69.5q0 42 -29.5 71t-71.5 29q-41 0 -68.5 -29t-27.5 -71z" />
    <glyph glyph-name="uring" unicode="&#x16f;" 
d="M154 336v647h184v-600q0 -109 66.5 -173.5t162.5 -64.5q148 0 250 129v709h184v-983h-180v94q-121 -125 -297 -125q-72 0 -137.5 24t-118 69t-83.5 116t-31 158zM352 1333q0 94 68 160t160 66q94 0 161.5 -65.5t67.5 -160.5q0 -93 -67.5 -158t-161.5 -65q-92 0 -160 65
t-68 158zM481 1333q0 -41 28 -69.5t69 -28.5q43 0 71.5 28.5t28.5 69.5q0 42 -29 71.5t-71 29.5q-41 0 -69 -29.5t-28 -71.5z" />
    <glyph glyph-name="Uhungarumlaut" unicode="&#x170;" horiz-adv-x="1398" 
d="M174 487v947h193v-940q0 -160 90.5 -250t242.5 -90q154 0 243 90t89 250v940h193v-947q0 -166 -70.5 -285t-187.5 -176t-267 -57q-112 0 -207 33.5t-166.5 97t-112 163t-40.5 224.5zM465 1575l104 309h215l-184 -309h-135zM733 1575l125 309h215l-205 -309h-135z" />
    <glyph glyph-name="uhungarumlaut" unicode="&#x171;" 
d="M154 336v647h184v-600q0 -109 66.5 -173.5t162.5 -64.5q148 0 250 129v709h184v-983h-180v94q-121 -125 -297 -125q-72 0 -137.5 24t-118 69t-83.5 116t-31 158zM346 1124l105 310h215l-185 -310h-135zM614 1124l125 310h215l-204 -310h-136z" />
    <glyph glyph-name="Uogonek" unicode="&#x172;" horiz-adv-x="1398" 
d="M174 487v947h193v-940q0 -160 90.5 -250t242.5 -90q154 0 243 90t89 250v940h193v-947q0 -190 -88 -315t-240 -174q-182 -86 -182 -201q0 -48 35.5 -72t83.5 -24q28 0 65 14v-145q-43 -16 -102 -16q-101 0 -173.5 56t-72.5 150q0 122 111 211q-216 11 -352 145.5
t-136 370.5z" />
    <glyph glyph-name="uogonek" unicode="&#x173;" 
d="M154 336v647h184v-600q0 -109 66.5 -173.5t162.5 -64.5q148 0 250 129v709h184v-983q-184 -87 -184 -203q0 -48 35.5 -72t83.5 -24q28 0 65 14v-145q-43 -16 -102 -16q-101 0 -173.5 56t-72.5 150q0 84 48 146.5t120 101.5v86q-121 -125 -297 -125q-72 0 -137.5 24
t-118 69t-83.5 116t-31 158z" />
    <glyph glyph-name="Wcircumflex" unicode="&#x174;" horiz-adv-x="2076" 
d="M41 1434h209l321 -981l385 981h162l393 -981l316 981h209l-506 -1465h-21l-473 1164l-465 -1164h-20zM715 1589l213 295h219l213 -295h-180l-144 176l-143 -176h-178z" />
    <glyph glyph-name="wcircumflex" unicode="&#x175;" horiz-adv-x="1624" 
d="M31 983h205l227 -743l260 743h190l261 -743l223 743h196l-319 -983h-199l-262 748l-256 -748h-203zM502 1139l213 295h219l213 -295h-180l-144 176l-143 -176h-178z" />
    <glyph glyph-name="Ycircumflex" unicode="&#x176;" horiz-adv-x="1380" 
d="M41 1434h221l430 -711l430 711h217l-548 -893v-541h-197v541zM375 1589l213 295h219l213 -295h-180l-144 176l-143 -176h-178z" />
    <glyph glyph-name="ycircumflex" unicode="&#x177;" horiz-adv-x="1093" 
d="M20 983h213l318 -678l305 678h217l-657 -1395h-217l256 521zM236 1139l213 295h219l213 -295h-181l-143 176l-143 -176h-178z" />
    <glyph glyph-name="Ydieresis" unicode="&#x178;" horiz-adv-x="1380" 
d="M41 1434h221l430 -711l430 711h217l-548 -893v-541h-197v541zM377 1743q0 51 35 87t86 36q52 0 88.5 -36t36.5 -87q0 -52 -36 -87.5t-89 -35.5q-51 0 -86 35.5t-35 87.5zM772 1743q0 51 35.5 87t87.5 36q51 0 87 -36t36 -87q0 -52 -36 -87.5t-87 -35.5q-53 0 -88 35
t-35 88z" />
    <glyph glyph-name="Zacute" unicode="&#x179;" horiz-adv-x="1294" 
d="M92 0v193l871 1062h-850v179h1089v-187l-874 -1067h884v-180h-1120zM530 1575l179 309h241l-258 -309h-162z" />
    <glyph glyph-name="zacute" unicode="&#x17a;" horiz-adv-x="974" 
d="M82 0v168l563 647h-555v168h793v-162l-564 -647h574v-174h-811zM360 1124l179 310h241l-258 -310h-162z" />
    <glyph glyph-name="Zdotaccent" unicode="&#x17b;" horiz-adv-x="1294" 
d="M92 0v193l871 1062h-850v179h1089v-187l-874 -1067h884v-180h-1120zM518 1808q0 59 38 98.5t95 39.5q58 0 96.5 -39.5t38.5 -98.5q0 -57 -38.5 -96t-96.5 -39q-57 0 -95 39t-38 96z" />
    <glyph glyph-name="zdotaccent" unicode="&#x17c;" horiz-adv-x="974" 
d="M82 0v168l563 647h-555v168h793v-162l-564 -647h574v-174h-811zM348 1358q0 59 38 98t95 39q58 0 96.5 -39t38.5 -98q0 -57 -38.5 -96t-96.5 -39q-57 0 -95 39t-38 96z" />
    <glyph glyph-name="Zcaron" unicode="&#x17d;" horiz-adv-x="1294" 
d="M92 0v193l871 1062h-850v179h1089v-187l-874 -1067h884v-180h-1120zM356 1884h179l143 -176l143 176h180l-213 -295h-219z" />
    <glyph glyph-name="zcaron" unicode="&#x17e;" horiz-adv-x="974" 
d="M82 0v168l563 647h-555v168h793v-162l-564 -647h574v-174h-811zM186 1434h179l143 -177l143 177h180l-213 -295h-219z" />
    <glyph glyph-name="uni01CD" unicode="&#x1cd;" horiz-adv-x="1394" 
d="M20 0l576 1434h203l575 -1434h-211l-145 367h-645l-144 -367h-209zM397 1884h178l144 -176l143 176h180l-213 -295h-219zM442 545h504l-254 641z" />
    <glyph glyph-name="uni01CE" unicode="&#x1ce;" horiz-adv-x="1067" 
d="M102 313q0 98 53.5 172t138.5 111t187 37q167 0 279 -62v105q0 76 -58 126t-167 50q-100 0 -200 -32.5t-175 -80.5v187q180 90 375 90q106 0 187 -29t128 -79.5t70.5 -114t23.5 -138.5v-655h-178v80q-49 -48 -123.5 -79.5t-161.5 -31.5q-169 0 -274 91.5t-105 252.5z
M252 1434h178l143 -177l144 177h180l-213 -295h-219zM295 313q0 -85 61.5 -135.5t157.5 -50.5q78 0 144 31t102 67v181q-34 27 -101.5 50t-144.5 23q-96 0 -157.5 -44t-61.5 -122z" />
    <glyph glyph-name="uni01CF" unicode="&#x1cf;" horiz-adv-x="561" 
d="M-10 1884h178l143 -176l144 176h180l-213 -295h-219zM184 0v1434h193v-1434h-193z" />
    <glyph glyph-name="uni01D0" unicode="&#x1d0;" horiz-adv-x="516" 
d="M-33 1434h178l144 -177l143 177h180l-213 -295h-219zM166 0v983h184v-983h-184z" />
    <glyph glyph-name="uni01D1" unicode="&#x1d1;" horiz-adv-x="1642" 
d="M92 717q0 176 61 320.5t163.5 236t232.5 141t272 49.5t272 -49.5t232.5 -141t163.5 -236t61 -320.5t-61 -320.5t-163.5 -236.5t-232.5 -141.5t-272 -49.5t-272 49.5t-232.5 141.5t-163.5 236.5t-61 320.5zM293 717q0 -134 44.5 -243.5t119 -178t168 -105t196.5 -36.5
t197 36.5t168.5 105t119 178t44.5 243.5t-44.5 243t-119 177.5t-168.5 105.5t-197 37t-197 -37t-168 -105.5t-118.5 -177.5t-44.5 -243zM526 1884h179l143 -176l143 176h180l-213 -295h-219z" />
    <glyph glyph-name="uni01D2" unicode="&#x1d2;" horiz-adv-x="1200" 
d="M82 494q0 225 147 373.5t371 148.5t371 -148.5t147 -373.5q0 -226 -147 -375.5t-371 -149.5t-371 149.5t-147 375.5zM276 494q0 -164 95 -257.5t229 -93.5t229 93.5t95 257.5q0 162 -95 255t-229 93t-229 -93t-95 -255zM303 1434h178l144 -177l143 177h180l-213 -295
h-219z" />
    <glyph glyph-name="Gcaron" unicode="&#x1e6;" horiz-adv-x="1492" 
d="M92 717q0 145 40 268t109.5 210t163 148.5t199.5 91t219 29.5q142 0 253 -33t233 -98v-205q-243 154 -486 154q-81 0 -156.5 -21t-144 -66.5t-119 -110.5t-80.5 -159.5t-30 -207.5t30 -207.5t80.5 -159t119 -109.5t144 -66t156.5 -21q154 0 297 61v317h-495v179h684v-611
q-122 -65 -233 -98t-253 -33t-272 48t-233 139t-164.5 236t-61.5 325zM526 1884h179l143 -176l143 176h180l-213 -295h-219z" />
    <glyph glyph-name="gcaron" unicode="&#x1e7;" horiz-adv-x="1181" 
d="M82 516q0 227 131.5 363.5t329.5 136.5q109 0 193 -37.5t138 -97.5v102h185v-958q0 -95 -27.5 -176.5t-85.5 -148t-158.5 -104.5t-234.5 -38q-118 0 -226 35t-184 83v193q97 -68 207 -103.5t203 -35.5q321 0 321 295v127q-54 -61 -138 -98.5t-193 -37.5
q-198 0 -329.5 136.5t-131.5 363.5zM276 516q0 -85 24.5 -150t67 -102t94.5 -55.5t113 -18.5q91 0 171 46.5t128 115.5v328q-44 68 -125 115t-174 47q-125 0 -212 -86t-87 -240zM303 1434h178l144 -177l143 177h180l-213 -295h-219z" />
    <glyph glyph-name="uni0218" unicode="&#x218;" horiz-adv-x="1218" 
d="M123 1059q0 83 34 156t96.5 128.5t159.5 88t216 32.5q195 0 393 -84v-196q-206 104 -393 104q-142 0 -226 -62t-84 -167q0 -170 187 -211l217 -47q181 -40 277 -146.5t96 -265.5q0 -82 -32 -157t-91 -134t-151.5 -94t-205.5 -35q-251 0 -483 125v193q102 -59 230.5 -99.5
t252.5 -40.5q143 0 211 66.5t68 175.5q0 80 -56 143.5t-161 85.5l-207 46q-348 76 -348 395zM475 -446l35 350h221l-115 -350h-141z" />
    <glyph glyph-name="uni0219" unicode="&#x219;" horiz-adv-x="925" 
d="M102 717q0 134 104 216.5t267 82.5q161 0 313 -68v-180q-162 84 -313 84q-93 0 -139.5 -37.5t-46.5 -97.5q0 -40 30 -72t89 -45l155 -35q133 -29 203 -103.5t70 -187.5q0 -143 -112.5 -224t-283.5 -81q-88 0 -178 23t-156 57v178q180 -94 334 -94q100 0 153.5 36
t53.5 105q0 47 -33.5 79t-95.5 46l-168 37q-119 26 -182.5 98.5t-63.5 182.5zM324 -446l34 350h222l-115 -350h-141z" />
    <glyph glyph-name="uni021A" unicode="&#x21a;" horiz-adv-x="1306" 
d="M82 1255v179h1143v-179h-475v-1255h-193v1255h-475zM504 -446l35 350h221l-115 -350h-141z" />
    <glyph glyph-name="uni021B" unicode="&#x21b;" horiz-adv-x="735" 
d="M41 819v164h190v291l172 102v-393h240v-164h-240v-549q0 -135 148 -135q49 0 92 15v-160q-56 -21 -147 -21q-128 0 -202.5 71t-74.5 202v577h-178zM311 -446l35 350h221l-114 -350h-142z" />
    <glyph glyph-name="uni0237" unicode="&#x237;" horiz-adv-x="524" 
d="M-41 -274q35 -7 68 -7q139 0 139 144v1120h184v-1120q0 -136 -72.5 -220.5t-197.5 -84.5q-79 0 -121 14v154z" />
    <glyph glyph-name="circumflex" unicode="&#x2c6;" horiz-adv-x="808" 
d="M82 1139l213 295h219l213 -295h-180l-144 176l-143 -176h-178z" />
    <glyph glyph-name="caron" unicode="&#x2c7;" horiz-adv-x="808" 
d="M82 1434h178l143 -177l144 177h180l-213 -295h-219z" />
    <glyph glyph-name="breve" unicode="&#x2d8;" horiz-adv-x="782" 
d="M82 1434h149q3 -60 44.5 -102t115.5 -42q73 0 115 42.5t45 101.5h149q-2 -129 -83 -210t-226 -81q-141 0 -224 81.5t-85 209.5z" />
    <glyph glyph-name="dotaccent" unicode="&#x2d9;" horiz-adv-x="432" 
d="M82 1358q0 59 38 98t95 39q58 0 96.5 -39t38.5 -98q0 -57 -38.5 -96t-96.5 -39q-57 0 -95 39t-38 96z" />
    <glyph glyph-name="ring" unicode="&#x2da;" horiz-adv-x="620" 
d="M82 1333q0 94 67.5 160t159.5 66q94 0 162 -65.5t68 -160.5q0 -93 -68 -158t-162 -65q-92 0 -159.5 65t-67.5 158zM211 1333q0 -41 27.5 -69.5t68.5 -28.5q43 0 72 28.5t29 69.5q0 42 -29.5 71.5t-71.5 29.5q-41 0 -68.5 -29.5t-27.5 -71.5z" />
    <glyph glyph-name="ogonek" unicode="&#x2db;" horiz-adv-x="512" 
d="M82 -240q0 53 20.5 100t55 80t69.5 55.5t74 37.5l129 -33q-184 -87 -184 -203q0 -48 36 -72t83 -24q28 0 65 14v-145q-43 -16 -102 -16q-101 0 -173.5 56t-72.5 150z" />
    <glyph glyph-name="tilde" unicode="&#x2dc;" horiz-adv-x="808" 
d="M82 1178q0 125 53.5 189.5t147.5 64.5q26 0 53.5 -8.5t40 -15.5t43.5 -24l29 -16q60 -33 83 -33q62 0 62 92h133q0 -124 -51.5 -188.5t-147.5 -64.5q-63 0 -133 45l-30 18q-60 33 -86 33q-30 0 -47 -23.5t-17 -68.5h-133z" />
    <glyph glyph-name="hungarumlaut" unicode="&#x2dd;" horiz-adv-x="772" 
d="M82 1124l104 310h215l-184 -310h-135zM350 1124l125 310h215l-205 -310h-135z" />
    <glyph glyph-name="uni0312" unicode="&#x312;" horiz-adv-x="0" 
d="M-338 1112l115 350h141l-35 -350h-221z" />
    <glyph glyph-name="uni0326" unicode="&#x326;" horiz-adv-x="0" 
d="M-338 -446l35 350h221l-115 -350h-141z" />
    <glyph glyph-name="Wgrave" unicode="&#x1e80;" horiz-adv-x="2076" 
d="M41 1434h209l321 -981l385 981h162l393 -981l316 981h209l-506 -1465h-21l-473 1164l-465 -1164h-20zM741 1884h242l178 -309h-162z" />
    <glyph glyph-name="wgrave" unicode="&#x1e81;" horiz-adv-x="1624" 
d="M31 983h205l227 -743l260 743h190l261 -743l223 743h196l-319 -983h-199l-262 748l-256 -748h-203zM528 1434h242l178 -310h-162z" />
    <glyph glyph-name="Wacute" unicode="&#x1e82;" horiz-adv-x="2076" 
d="M41 1434h209l321 -981l385 981h162l393 -981l316 981h209l-506 -1465h-21l-473 1164l-465 -1164h-20zM915 1575l179 309h241l-258 -309h-162z" />
    <glyph glyph-name="wacute" unicode="&#x1e83;" horiz-adv-x="1624" 
d="M31 983h205l227 -743l260 743h190l261 -743l223 743h196l-319 -983h-199l-262 748l-256 -748h-203zM702 1124l179 310h241l-258 -310h-162z" />
    <glyph glyph-name="Wdieresis" unicode="&#x1e84;" horiz-adv-x="2076" 
d="M41 1434h209l321 -981l385 981h162l393 -981l316 981h209l-506 -1465h-21l-473 1164l-465 -1164h-20zM717 1743q0 51 35 87t86 36q52 0 88.5 -36t36.5 -87q0 -52 -36 -87.5t-89 -35.5q-51 0 -86 35.5t-35 87.5zM1112 1743q0 51 35.5 87t87.5 36q51 0 87 -36t36 -87
q0 -52 -36 -87.5t-87 -35.5q-53 0 -88 35t-35 88z" />
    <glyph glyph-name="wdieresis" unicode="&#x1e85;" horiz-adv-x="1624" 
d="M31 983h205l227 -743l260 743h190l261 -743l223 743h196l-319 -983h-199l-262 748l-256 -748h-203zM504 1292q0 51 35 87t86 36q52 0 88.5 -36t36.5 -87q0 -52 -36 -87.5t-89 -35.5q-51 0 -86 35.5t-35 87.5zM899 1292q0 51 35.5 87t87.5 36q51 0 87 -36t36 -87
q0 -52 -36 -87.5t-87 -35.5q-52 0 -87.5 35.5t-35.5 87.5z" />
    <glyph glyph-name="uni1E9E" unicode="&#x1e9e;" horiz-adv-x="1517" 
d="M184 0v1026q0 190 133 314t381 124q132 0 255.5 -35.5t209.5 -89.5v-192l-342 -297l201 -59q186 -55 279.5 -153.5t93.5 -248.5q0 -84 -28.5 -158t-84 -133.5t-147.5 -94t-209 -34.5q-193 0 -383 82v195q214 -99 383 -99q142 0 205 65.5t63 176.5q0 78 -55 137.5
t-162 91.5l-350 105v184l377 318q-149 57 -306 57q-164 0 -242.5 -70.5t-78.5 -185.5v-1026h-193z" />
    <glyph glyph-name="uni1EBC" unicode="&#x1ebc;" horiz-adv-x="1181" 
d="M184 0v1434h875v-179h-682v-446h618v-178h-618v-453h682v-178h-875zM344 1628q0 125 53.5 189.5t147.5 64.5q26 0 52.5 -8t41 -15.5t43.5 -23.5l29 -16q60 -33 84 -33q61 0 61 92h133q0 -124 -51 -189t-147 -65q-64 0 -134 45l-30 19q-58 32 -86 32q-30 0 -47 -23.5
t-17 -68.5h-133z" />
    <glyph glyph-name="uni1EBD" unicode="&#x1ebd;" horiz-adv-x="1128" 
d="M82 496q0 115 39 213.5t105 165t154 104t185 37.5q224 0 353 -147t129 -384q0 -35 -5 -65h-761q6 -122 94 -201.5t213 -79.5q118 0 214 35.5t197 114.5v-183q-174 -137 -411 -137q-104 0 -195 34t-160.5 98.5t-110 166t-40.5 228.5zM262 1178q0 125 53.5 189.5
t147.5 64.5q26 0 53.5 -8.5t40 -15.5t43.5 -24l29 -16q60 -33 84 -33q61 0 61 92h133q0 -124 -51 -188.5t-147 -64.5q-64 0 -134 45l-30 18q-60 33 -86 33q-30 0 -47 -23.5t-17 -68.5h-133zM287 580h559q-3 120 -77 193t-204 73q-118 0 -195 -78t-83 -188z" />
    <glyph glyph-name="Ygrave" unicode="&#x1ef2;" horiz-adv-x="1380" 
d="M41 1434h221l430 -711l430 711h217l-548 -893v-541h-197v541zM401 1884h242l178 -309h-162z" />
    <glyph glyph-name="ygrave" unicode="&#x1ef3;" horiz-adv-x="1093" 
d="M20 983h213l318 -678l305 678h217l-657 -1395h-217l256 521zM262 1434h242l178 -310h-162z" />
    <glyph glyph-name="uni2000" unicode="&#x2000;" horiz-adv-x="1004" 
 />
    <glyph glyph-name="uni2001" unicode="&#x2001;" horiz-adv-x="2009" 
 />
    <glyph glyph-name="uni2002" unicode="&#x2002;" horiz-adv-x="1004" 
 />
    <glyph glyph-name="uni2003" unicode="&#x2003;" horiz-adv-x="2009" 
 />
    <glyph glyph-name="uni2004" unicode="&#x2004;" horiz-adv-x="669" 
 />
    <glyph glyph-name="uni2005" unicode="&#x2005;" horiz-adv-x="502" 
 />
    <glyph glyph-name="uni2006" unicode="&#x2006;" horiz-adv-x="334" 
 />
    <glyph glyph-name="uni2007" unicode="&#x2007;" horiz-adv-x="334" 
 />
    <glyph glyph-name="uni2008" unicode="&#x2008;" horiz-adv-x="251" 
 />
    <glyph glyph-name="uni2009" unicode="&#x2009;" horiz-adv-x="401" 
 />
    <glyph glyph-name="uni200A" unicode="&#x200a;" horiz-adv-x="111" 
 />
    <glyph glyph-name="uni2010" unicode="&#x2010;" horiz-adv-x="759" 
d="M92 504v168h576v-168h-576z" />
    <glyph glyph-name="uni2011" unicode="&#x2011;" horiz-adv-x="759" 
d="M92 504v168h576v-168h-576z" />
    <glyph glyph-name="figuredash" unicode="&#x2012;" horiz-adv-x="759" 
d="M92 504v168h576v-168h-576z" />
    <glyph glyph-name="endash" unicode="&#x2013;" horiz-adv-x="1294" 
d="M113 565v168h1069v-168h-1069z" />
    <glyph glyph-name="emdash" unicode="&#x2014;" horiz-adv-x="2238" 
d="M133 565v168h1972v-168h-1972z" />
    <glyph glyph-name="quoteleft" unicode="&#x2018;" horiz-adv-x="593" 
d="M113 985q16 135 80.5 293t128.5 258h159q-51 -118 -90.5 -276.5t-48.5 -274.5h-229z" />
    <glyph glyph-name="quoteright" unicode="&#x2019;" horiz-adv-x="593" 
d="M113 985q51 118 90.5 276.5t48.5 274.5h229q-16 -135 -80.5 -293t-128.5 -258h-159z" />
    <glyph glyph-name="quotesinglbase" unicode="&#x201a;" horiz-adv-x="593" 
d="M113 -289q51 118 90.5 276.5t48.5 274.5h229q-16 -135 -80.5 -293t-128.5 -258h-159z" />
    <glyph glyph-name="quotedblleft" unicode="&#x201c;" horiz-adv-x="1003" 
d="M113 985q16 135 80.5 293t128.5 258h159q-51 -118 -90.5 -276.5t-48.5 -274.5h-229zM522 985q16 135 80.5 293t128.5 258h160q-51 -118 -90.5 -276.5t-48.5 -274.5h-230z" />
    <glyph glyph-name="quotedblright" unicode="&#x201d;" horiz-adv-x="1003" 
d="M113 985q51 118 90.5 276.5t48.5 274.5h229q-16 -135 -80.5 -293t-128.5 -258h-159zM522 985q51 119 91 277.5t49 273.5h229q-16 -135 -80.5 -293t-128.5 -258h-160z" />
    <glyph glyph-name="quotedblbase" unicode="&#x201e;" horiz-adv-x="1003" 
d="M113 -289q51 118 90.5 276.5t48.5 274.5h229q-16 -135 -80.5 -293t-128.5 -258h-159zM522 -289q51 119 91 277.5t49 273.5h229q-16 -135 -80.5 -293t-128.5 -258h-160z" />
    <glyph glyph-name="dagger" unicode="&#x2020;" horiz-adv-x="819" 
d="M61 944v164l281 -21l-20 347h176l-21 -347l281 21v-164l-281 21l21 -652h-176l20 652z" />
    <glyph glyph-name="daggerdbl" unicode="&#x2021;" horiz-adv-x="819" 
d="M61 295v164l281 -21l-20 262l20 265l-281 -21v164l281 -21l-20 347h176l-21 -347l281 21v-164l-281 21l21 -265l-21 -262l281 21v-164l-281 20l21 -346h-176l20 346z" />
    <glyph glyph-name="bullet" unicode="&#x2022;" horiz-adv-x="1069" 
d="M184 612q0 146 103 249.5t248 103.5t247.5 -103.5t102.5 -249.5q0 -143 -103 -246.5t-247 -103.5t-247.5 103.5t-103.5 246.5z" />
    <glyph glyph-name="ellipsis" unicode="&#x2026;" horiz-adv-x="1513" 
d="M143 131q0 60 41 101.5t101 41.5t101.5 -41.5t41.5 -101.5t-41.5 -100.5t-101.5 -40.5t-101 40.5t-41 100.5zM614 131q0 60 41 101.5t101 41.5t101.5 -41.5t41.5 -101.5t-41.5 -100.5t-101.5 -40.5t-101 40.5t-41 100.5zM1085 131q0 60 41 101.5t101 41.5t101.5 -41.5
t41.5 -101.5t-41.5 -100.5t-101.5 -40.5t-101 40.5t-41 100.5z" />
    <glyph glyph-name="uni202F" unicode="&#x202f;" horiz-adv-x="401" 
 />
    <glyph glyph-name="perthousand" unicode="&#x2030;" horiz-adv-x="2467" 
d="M113 1143q0 139 94 230t233 91t233.5 -91.5t94.5 -229.5q0 -139 -94.5 -230.5t-233.5 -91.5t-233 91.5t-94 230.5zM272 1143q0 -75 47 -121.5t121 -46.5t121 46.5t47 121.5t-47 121.5t-121 46.5t-121 -46.5t-47 -121.5zM276 0l949 1434h190l-944 -1434h-195zM924 291
q0 139 94 230t233 91t233.5 -91.5t94.5 -229.5q0 -139 -94.5 -230.5t-233.5 -91.5t-233 91.5t-94 230.5zM1083 291q0 -75 47 -121.5t121 -46.5t121 46.5t47 121.5t-47 121.5t-121 46.5t-121 -46.5t-47 -121.5zM1700 291q0 138 94.5 229.5t233.5 91.5t233 -91t94 -230
t-94 -230.5t-233 -91.5t-233.5 91.5t-94.5 230.5zM1860 291q0 -75 47 -121.5t121 -46.5t120.5 46.5t46.5 121.5t-46.5 121.5t-120.5 46.5t-121 -46.5t-47 -121.5z" />
    <glyph glyph-name="guilsinglleft" unicode="&#x2039;" horiz-adv-x="684" 
d="M61 532l351 392h170l-279 -392l279 -391h-170z" />
    <glyph glyph-name="guilsinglright" unicode="&#x203a;" horiz-adv-x="684" 
d="M102 141l279 391l-279 392h170l351 -392l-351 -391h-170z" />
    <glyph glyph-name="fraction" unicode="&#x2044;" horiz-adv-x="970" 
d="M41 -82l702 1618h187l-703 -1618h-186z" />
    <glyph glyph-name="uni205F" unicode="&#x205f;" horiz-adv-x="502" 
 />
    <glyph glyph-name="Euro" unicode="&#x20ac;" horiz-adv-x="1480" 
d="M92 430v178h96q-6 52 -6 109q0 31 2 47h-92v178h119q33 126 103.5 227t165 164.5t205 97t228.5 33.5q142 0 253 -33t233 -98v-205q-243 154 -486 154q-165 0 -300.5 -86.5t-194.5 -253.5h588l-43 -178h-578q-2 -14 -2 -47q0 -62 8 -109h539l-43 -178h-443
q68 -137 195 -207.5t274 -70.5q244 0 486 153v-205q-122 -65 -233 -98t-253 -33q-149 0 -283 50.5t-241 156.5t-160 254h-137z" />
    <glyph glyph-name="uni2116" unicode="&#x2116;" horiz-adv-x="2805" 
d="M184 0v1434h240l741 -1092v1092h189v-1434h-197l-784 1182v-1182h-189zM1585 940q0 225 147 373.5t371 148.5t371 -148.5t147 -373.5q0 -226 -147 -375t-371 -149t-371 149t-147 375zM1780 940q0 -164 94.5 -257t228.5 -93t229 93t95 257q0 162 -95 255t-229 93
t-228.5 -93t-94.5 -255zM1962 131q0 60 40.5 101.5t100.5 41.5t102 -41.5t42 -101.5t-42 -100.5t-102 -40.5t-100.5 40.5t-40.5 100.5z" />
    <glyph glyph-name="trademark" unicode="&#x2122;" horiz-adv-x="1204" 
d="M92 1341v93h416v-93h-160v-387h-96v387h-160zM596 954v480h98l160 -260l164 260h94v-480h-90v330l-160 -256h-16l-160 256v-330h-90z" />
    <glyph glyph-name="arrowleft" unicode="&#x2190;" horiz-adv-x="1726" 
d="M82 696l668 697h245l-563 -605h1213v-184h-1213l563 -604h-245z" />
    <glyph glyph-name="arrowup" unicode="&#x2191;" horiz-adv-x="1556" 
d="M82 649v246l696 668l697 -668v-246l-605 563v-1212h-184v1212z" />
    <glyph glyph-name="arrowright" unicode="&#x2192;" horiz-adv-x="1726" 
d="M82 604v184h1212l-563 605h246l668 -697l-668 -696h-246l563 604h-1212z" />
    <glyph glyph-name="arrowdown" unicode="&#x2193;" horiz-adv-x="1556" 
d="M82 539v245l604 -563v1213h184v-1213l605 563v-245l-697 -668z" />
    <glyph glyph-name="uni2196" unicode="&#x2196;" horiz-adv-x="1462" 
d="M82 412v968h969l186 -186h-842l985 -979l-131 -131l-981 983v-842z" />
    <glyph glyph-name="uni2197" unicode="&#x2197;" horiz-adv-x="1462" 
d="M82 215l985 979h-842l187 186h968v-968l-186 -187v842l-981 -983z" />
    <glyph glyph-name="uni2198" unicode="&#x2198;" horiz-adv-x="1462" 
d="M82 1249l131 131l981 -983v842l186 -186v-969h-968l-187 186h842z" />
    <glyph glyph-name="uni2199" unicode="&#x2199;" horiz-adv-x="1462" 
d="M82 84v969l186 186v-842l981 983l131 -131l-985 -979h842l-186 -186h-969z" />
    <glyph glyph-name="minus" unicode="&#x2212;" horiz-adv-x="935" 
d="M0 508v162h936v-162h-936z" />
    <glyph glyph-name="approxequal" unicode="&#x2248;" horiz-adv-x="1183" 
d="M92 461q116 190 297 190q100 0 195 -53l94 -51q64 -33 117 -33q109 0 180 113l117 -95q-116 -190 -297 -190q-98 0 -199 55l-94 52q-58 30 -113 30q-110 0 -180 -112zM92 870q116 191 297 191q100 0 195 -53l94 -52q62 -32 117 -32q110 0 180 112l117 -94
q-116 -190 -297 -190q-98 0 -199 55l-94 51q-60 31 -113 31q-109 0 -180 -113z" />
    <glyph glyph-name="notequal" unicode="&#x2260;" horiz-adv-x="935" 
d="M0 303v162h362l103 248h-465v161h530l88 218h109l-88 -218h297v-161h-363l-102 -248h465v-162h-530l-89 -217h-108l88 217h-297z" />
    <glyph glyph-name="lessequal" unicode="&#x2264;" horiz-adv-x="1017" 
d="M41 78v162h936v-162h-936zM41 625v268l936 246v-176l-801 -205l801 -205v-176z" />
    <glyph glyph-name="greaterequal" unicode="&#x2265;" horiz-adv-x="1017" 
d="M41 78v162h936v-162h-936zM41 377v176l801 205l-801 205v176l936 -246v-268z" />
    <glyph glyph-name="uni25FC" unicode="&#x25fc;" horiz-adv-x="983" 
d="M0 0v983h983v-983h-983z" />
    <glyph glyph-name="Q.ss01" horiz-adv-x="1615" 
d="M92 717q0 176 61 320.5t163.5 236t232.5 141t272 49.5t272 -49.5t232.5 -141t163.5 -236t61 -320.5q0 -163 -50.5 -298t-137 -224.5t-196.5 -145t-236 -72.5q71 -82 184 -128t256 -46q194 0 389 88v-204q-177 -68 -389 -68q-232 0 -405.5 100.5t-249.5 255.5
q-126 17 -237.5 74t-198 148.5t-137 226t-50.5 293.5zM293 717q0 -134 44.5 -243.5t119 -178t168 -105t196.5 -36.5t197 36.5t168.5 105t119 178t44.5 243.5t-44.5 243t-119 177.5t-168.5 105.5t-197 37t-197 -37t-168 -105.5t-118.5 -177.5t-44.5 -243z" />
    <glyph glyph-name="i.loclTRK" horiz-adv-x="516" 
d="M129 1358q0 59 38 98t95 39q58 0 96.5 -39t38.5 -98q0 -57 -38.5 -96t-96.5 -39q-57 0 -95 39t-38 96zM166 0v983h184v-983h-184z" />
    <glyph glyph-name="x.001" horiz-adv-x="1026" 
d="M20 0l375 506l-352 477h229l248 -354l240 354h223l-342 -485l365 -498h-228l-270 373l-262 -373h-226z" />
    <glyph glyph-name="a.ss01" horiz-adv-x="1222" 
d="M82 496q0 145 56.5 262.5t165 187.5t249.5 70q190 0 321 -135v102h185v-983h-185v106q-133 -137 -321 -137q-141 0 -249.5 71t-165 190t-56.5 266zM276 496q0 -163 84 -258t226 -95q91 0 164.5 46.5t123.5 117.5v373q-50 71 -123.5 116.5t-164.5 45.5q-142 0 -226 -93
t-84 -253z" />
    <glyph glyph-name="aacute.ss01" horiz-adv-x="1222" 
d="M82 496q0 145 56.5 262.5t165 187.5t249.5 70q190 0 321 -135v102h185v-983h-185v106q-133 -137 -321 -137q-141 0 -249.5 71t-165 190t-56.5 266zM276 496q0 -163 84 -258t226 -95q91 0 164.5 46.5t123.5 117.5v373q-50 71 -123.5 116.5t-164.5 45.5q-142 0 -226 -93
t-84 -253zM459 1124l178 310h242l-258 -310h-162z" />
    <glyph glyph-name="abreve.ss01" horiz-adv-x="1222" 
d="M82 496q0 145 56.5 262.5t165 187.5t249.5 70q190 0 321 -135v102h185v-983h-185v106q-133 -137 -321 -137q-141 0 -249.5 71t-165 190t-56.5 266zM270 1434h150q3 -60 44.5 -102t115.5 -42q73 0 114.5 42.5t44.5 101.5h150q-2 -129 -83 -210t-226 -81q-142 0 -225 81.5
t-85 209.5zM276 496q0 -163 84 -258t226 -95q91 0 164.5 46.5t123.5 117.5v373q-50 71 -123.5 116.5t-164.5 45.5q-142 0 -226 -93t-84 -253z" />
    <glyph glyph-name="uni01CE.ss01" horiz-adv-x="1222" 
d="M82 496q0 145 56.5 262.5t165 187.5t249.5 70q190 0 321 -135v102h185v-983h-185v106q-133 -137 -321 -137q-141 0 -249.5 71t-165 190t-56.5 266zM276 496q0 -163 84 -258t226 -95q91 0 164.5 46.5t123.5 117.5v373q-50 71 -123.5 116.5t-164.5 45.5q-142 0 -226 -93
t-84 -253zM285 1434h178l143 -177l144 177h180l-213 -295h-219z" />
    <glyph glyph-name="acircumflex.ss01" horiz-adv-x="1222" 
d="M82 496q0 145 56.5 262.5t165 187.5t249.5 70q190 0 321 -135v102h185v-983h-185v106q-133 -137 -321 -137q-141 0 -249.5 71t-165 190t-56.5 266zM258 1139l213 295h219l213 -295h-180l-143 176l-144 -176h-178zM276 496q0 -163 84 -258t226 -95q91 0 164.5 46.5
t123.5 117.5v373q-50 71 -123.5 116.5t-164.5 45.5q-142 0 -226 -93t-84 -253z" />
    <glyph glyph-name="adieresis.ss01" horiz-adv-x="1222" 
d="M82 496q0 145 56.5 262.5t165 187.5t249.5 70q190 0 321 -135v102h185v-983h-185v106q-133 -137 -321 -137q-141 0 -249.5 71t-165 190t-56.5 266zM260 1292q0 51 35 87t86 36q52 0 88.5 -36t36.5 -87q0 -52 -36 -87.5t-89 -35.5q-51 0 -86 35.5t-35 87.5zM276 496
q0 -163 84 -258t226 -95q91 0 164.5 46.5t123.5 117.5v373q-50 71 -123.5 116.5t-164.5 45.5q-142 0 -226 -93t-84 -253zM655 1292q0 51 35.5 87t87.5 36q51 0 87 -36t36 -87q0 -52 -36 -87.5t-87 -35.5q-52 0 -87.5 35.5t-35.5 87.5z" />
    <glyph glyph-name="agrave.ss01" horiz-adv-x="1222" 
d="M82 496q0 145 56.5 262.5t165 187.5t249.5 70q190 0 321 -135v102h185v-983h-185v106q-133 -137 -321 -137q-141 0 -249.5 71t-165 190t-56.5 266zM276 496q0 -163 84 -258t226 -95q91 0 164.5 46.5t123.5 117.5v373q-50 71 -123.5 116.5t-164.5 45.5q-142 0 -226 -93
t-84 -253zM285 1434h241l179 -310h-162z" />
    <glyph glyph-name="amacron.ss01" horiz-adv-x="1222" 
d="M82 496q0 145 56.5 262.5t165 187.5t249.5 70q190 0 321 -135v102h185v-983h-185v106q-133 -137 -321 -137q-141 0 -249.5 71t-165 190t-56.5 266zM276 496q0 -163 84 -258t226 -95q91 0 164.5 46.5t123.5 117.5v373q-50 71 -123.5 116.5t-164.5 45.5q-142 0 -226 -93
t-84 -253zM305 1223v166h559v-166h-559z" />
    <glyph glyph-name="aogonek.ss01" horiz-adv-x="1222" 
d="M82 496q0 145 56.5 262.5t165 187.5t249.5 70q190 0 321 -135v102h185v-983q-185 -88 -185 -203q0 -48 35.5 -72t83.5 -24q29 0 66 14v-145q-43 -16 -103 -16q-101 0 -173 56t-72 150q0 83 46.5 145t116.5 101v100q-133 -137 -321 -137q-141 0 -249.5 71t-165 190
t-56.5 266zM276 496q0 -163 84 -258t226 -95q91 0 164.5 46.5t123.5 117.5v373q-50 71 -123.5 116.5t-164.5 45.5q-142 0 -226 -93t-84 -253z" />
    <glyph glyph-name="aring.ss01" horiz-adv-x="1222" 
d="M82 496q0 145 56.5 262.5t165 187.5t249.5 70q190 0 321 -135v102h185v-983h-185v106q-133 -137 -321 -137q-141 0 -249.5 71t-165 190t-56.5 266zM276 496q0 -163 84 -258t226 -95q91 0 164.5 46.5t123.5 117.5v373q-50 71 -123.5 116.5t-164.5 45.5q-142 0 -226 -93
t-84 -253zM352 1333q0 94 68 160t160 66q94 0 161.5 -65.5t67.5 -160.5q0 -93 -67.5 -158t-161.5 -65q-92 0 -160 65t-68 158zM481 1333q0 -41 28 -69.5t69 -28.5q43 0 71.5 28.5t28.5 69.5q0 42 -29 71.5t-71 29.5q-41 0 -69 -29.5t-28 -71.5z" />
    <glyph glyph-name="atilde.ss01" horiz-adv-x="1222" 
d="M82 496q0 145 56.5 262.5t165 187.5t249.5 70q190 0 321 -135v102h185v-983h-185v106q-133 -137 -321 -137q-141 0 -249.5 71t-165 190t-56.5 266zM264 1178q0 125 53.5 189.5t147.5 64.5q26 0 53.5 -8.5t40 -15.5t43.5 -24l29 -16q60 -33 84 -33q61 0 61 92h133
q0 -124 -51 -188.5t-147 -64.5q-63 0 -133 45l-31 18q-60 33 -86 33q-30 0 -47 -23.5t-17 -68.5h-133zM276 496q0 -163 84 -258t226 -95q91 0 164.5 46.5t123.5 117.5v373q-50 71 -123.5 116.5t-164.5 45.5q-142 0 -226 -93t-84 -253z" />
    <glyph glyph-name="zero.osf" horiz-adv-x="1298" 
d="M123 539q0 112 33.5 213t97.5 181t166 127t229 46q102 1 189 -30t148.5 -84.5t104.5 -126t64 -155t21 -171.5q0 -113 -34 -214t-97.5 -181t-166 -127.5t-229.5 -47.5t-229 47.5t-166 127.5t-97.5 181t-33.5 214zM317 539q0 -61 11 -116t36 -106.5t62.5 -89t94.5 -60
t128 -22.5t128 22.5t94.5 60t62.5 89t36 106.5t11 116q0 60 -11 115t-36 106t-62.5 88t-94.5 59.5t-128 22.5t-128 -22.5t-94.5 -59.5t-62.5 -88t-36 -106t-11 -115z" />
    <glyph glyph-name="one.osf" horiz-adv-x="915" 
d="M154 696v189l362 188h164v-1073h-184v868z" />
    <glyph glyph-name="two.osf" horiz-adv-x="1196" 
d="M164 0q0 201 75.5 318.5t239.5 181.5l178 69q181 71 181 191q0 76 -69 121t-202 45q-93 0 -196.5 -30.5t-186.5 -78.5v205q187 84 383 84q225 0 346 -93.5t121 -252.5q0 -228 -303 -344l-180 -70q-161 -61 -168 -162h659v-184h-878z" />
    <glyph glyph-name="three.osf" horiz-adv-x="1259" 
d="M184 -88q214 -123 416 -123q76 0 137.5 25t98.5 66t57 90t20 100q0 124 -88.5 194t-210.5 70q-55 0 -116 -21l-92 179l419 397h-641v184h901v-180l-438 -404q23 5 66 5q68 0 137.5 -28.5t129.5 -79.5t98 -133t38 -179q0 -93 -33.5 -176t-96.5 -148t-162.5 -103
t-223.5 -38q-212 0 -416 104v199z" />
    <glyph glyph-name="four.osf" horiz-adv-x="1316" 
d="M133 0v229l590 844h264v-893h227v-180h-227v-360h-188v360h-666zM309 180h490v713z" />
    <glyph glyph-name="five.osf" horiz-adv-x="1249" 
d="M184 -88q214 -123 430 -123q130 0 214.5 81t84.5 206q0 133 -87 212t-232 79q-136 0 -242 -76l-143 98l33 684h819v-184h-649l-23 -406q107 58 258 58q126 0 232 -56.5t171.5 -164.5t65.5 -244q0 -92 -35.5 -176.5t-99 -149t-159 -103t-208.5 -38.5q-92 0 -179 18
t-132 35.5t-119 50.5v199z" />
    <glyph glyph-name="six.osf" horiz-adv-x="1345" 
d="M174 666q0 177 25 311.5t72.5 227t120.5 150.5t164 83.5t208 25.5q90 0 185.5 -22t152.5 -51v-185q-71 33 -163.5 55.5t-174.5 22.5q-201 0 -298 -117t-97 -383q56 54 145.5 92.5t208.5 38.5q199 0 323.5 -129t124.5 -344q0 -138 -67 -247.5t-177.5 -167.5t-240.5 -58
q-249 0 -380.5 182.5t-131.5 514.5zM373 592q0 -221 80 -334t235 -113q125 0 206 83t81 214q0 132 -80.5 214.5t-206.5 82.5q-92 0 -175.5 -42t-139.5 -105z" />
    <glyph glyph-name="seven.osf" horiz-adv-x="1255" 
d="M123 664v409h1010v-182q-138 -151 -210 -254q-302 -429 -302 -997h-201q0 142 22.5 281.5t57.5 250.5t84.5 218.5t95 183.5t97.5 147t84 108.5t63 69.5h-627v-235h-174z" />
    <glyph glyph-name="eight.osf" horiz-adv-x="1306" 
d="M154 408q0 115 60 206t167 152q-178 114 -178 311q0 174 121 280.5t323 106.5q211 0 334 -113t123 -290q0 -101 -57.5 -185.5t-155.5 -144.5q134 -66 198 -153.5t64 -208.5q0 -171 -138 -285.5t-356 -114.5q-241 0 -373 118.5t-132 320.5zM346 408q0 -123 83 -193
t230 -70q137 0 217 65.5t80 158.5q0 78 -52 137.5t-171 107.5l-168 68q-219 -87 -219 -274zM391 1077q0 -71 48.5 -126t121.5 -85l162 -65q192 110 192 260q0 98 -67.5 163.5t-200.5 65.5q-126 0 -191 -63t-65 -150z" />
    <glyph glyph-name="nine.osf" horiz-adv-x="1345" 
d="M174 633q0 138 67 247.5t177.5 167.5t240.5 58q249 0 380.5 -182t131.5 -514q0 -221 -38 -376t-114.5 -247.5t-183 -134t-253.5 -41.5q-89 0 -184.5 22.5t-153.5 51.5v184q71 -33 163.5 -55.5t174.5 -22.5q201 0 298 117t97 383q-56 -54 -145.5 -92.5t-208.5 -38.5
q-199 0 -324 129.5t-125 343.5zM371 633q0 -133 80.5 -215t205.5 -82q92 0 176 42t140 105q0 221 -80 334t-236 113q-125 0 -205.5 -83t-80.5 -214z" />
    <glyph glyph-name="zero.tf" horiz-adv-x="1331" 
d="M139 717q0 131 18 242t58 205.5t100.5 160t149.5 102.5t201 37t201 -37t149 -102.5t100 -160t58 -205.5t18 -242q0 -165 -29 -298t-90.5 -235.5t-164.5 -158.5t-242 -56q-112 0 -201 37t-149.5 103t-100.5 160.5t-58 205.5t-18 242zM336 717q0 -99 9 -179.5t31.5 -155.5
t59 -126t95 -81t135.5 -30t135.5 30t94.5 81t59 126t31.5 155.5t8.5 179.5t-8.5 179.5t-31.5 155.5t-59 125.5t-94.5 80.5t-135.5 30t-135.5 -30t-95 -80.5t-59 -125.5t-31.5 -155.5t-9 -179.5z" />
    <glyph glyph-name="one.tf" horiz-adv-x="1331" 
d="M229 1053v192l424 189h168v-1250h279v-184h-819v184h352v1051z" />
    <glyph glyph-name="two.tf" horiz-adv-x="1331" 
d="M207 0q0 153 34.5 262t98 186t178.5 166l217 168q93 72 140 141t47 144q0 98 -78 157.5t-213 59.5q-214 0 -404 -129v205q61 31 104.5 49.5t126.5 36.5t173 18q224 0 355.5 -113t131.5 -284q0 -222 -254 -410l-258 -192q-75 -55 -127.5 -128.5t-52.5 -152.5h700v-184
h-919z" />
    <glyph glyph-name="three.tf" horiz-adv-x="1331" 
d="M201 74v198q212 -122 415 -122q76 0 137.5 25t99 65.5t57.5 89.5t20 100q0 124 -88.5 194t-210.5 70q-59 0 -117 -20l-92 178l420 397h-641v185h901v-181l-438 -403q18 4 65 4q54 0 110 -17.5t108.5 -53t94 -84.5t66.5 -118t25 -147q0 -74 -21 -142t-63.5 -127
t-103 -102.5t-145.5 -68.5t-184 -25q-209 0 -415 105z" />
    <glyph glyph-name="four.tf" horiz-adv-x="1331" 
d="M125 360v230l590 844h264v-893h227v-181h-227v-360h-188v360h-666zM301 541h490v712z" />
    <glyph glyph-name="five.tf" horiz-adv-x="1331" 
d="M201 74v198q212 -122 430 -122q130 0 214.5 80.5t84.5 205.5q0 133 -87.5 212t-232.5 79q-135 0 -241 -76l-144 99l33 684h819v-185h-649l-22 -405q105 57 258 57q126 0 232 -56.5t171.5 -164.5t65.5 -244q0 -92 -35.5 -176.5t-99 -149t-159 -103t-208.5 -38.5
q-92 0 -179.5 18.5t-131 35.5t-119.5 51z" />
    <glyph glyph-name="six.tf" horiz-adv-x="1331" 
d="M168 666q0 177 25 311.5t72.5 227t120.5 150.5t164 83.5t208 25.5q90 0 185.5 -22t152.5 -51v-185q-71 33 -163.5 55.5t-174.5 22.5q-201 0 -298.5 -117t-97.5 -383q56 54 145.5 92.5t209.5 38.5q199 0 323.5 -129t124.5 -344q0 -138 -67 -247.5t-177.5 -167.5
t-240.5 -58q-249 0 -380.5 182.5t-131.5 514.5zM367 592q0 -221 80 -334t235 -113q125 0 206 83t81 214q0 132 -80.5 214.5t-206.5 82.5q-92 0 -175.5 -42t-139.5 -105z" />
    <glyph glyph-name="seven.tf" horiz-adv-x="1331" 
d="M201 1024v410h1009v-183q-138 -151 -210 -254q-302 -429 -302 -997h-200q0 142 22.5 281.5t57.5 251t84 218.5t94.5 183.5t97.5 147.5t84.5 108.5t62.5 69.5h-626v-236h-174z" />
    <glyph glyph-name="eight.tf" horiz-adv-x="1331" 
d="M166 408q0 115 60 206t167 152q-178 114 -178 311q0 174 121 280.5t323 106.5q211 0 334 -113t123 -290q0 -101 -57.5 -185.5t-155.5 -144.5q134 -66 198 -153.5t64 -208.5q0 -171 -137.5 -285.5t-355.5 -114.5q-241 0 -373.5 119t-132.5 320zM358 408q0 -123 83 -193
t231 -70q137 0 217 65.5t80 158.5q0 78 -52.5 137.5t-171.5 107.5l-167 68q-220 -88 -220 -274zM403 1077q0 -71 48.5 -126t121.5 -85l162 -65q193 111 193 260q0 98 -68 163.5t-201 65.5q-126 0 -191 -63t-65 -150z" />
    <glyph glyph-name="nine.tf" horiz-adv-x="1331" 
d="M168 991q0 138 67 247.5t177.5 167.5t240.5 58q249 0 380.5 -182t131.5 -514q0 -221 -38 -376t-115 -247.5t-183.5 -134t-253.5 -41.5q-89 0 -184 22.5t-153 51.5v184q70 -33 162.5 -55t174.5 -22q201 0 298.5 116.5t97.5 382.5q-56 -54 -145.5 -92.5t-209.5 -38.5
q-199 0 -323.5 129t-124.5 344zM365 991q0 -133 80.5 -215t205.5 -82q92 0 176 42.5t140 105.5q0 221 -80 333.5t-236 112.5q-125 0 -205.5 -83t-80.5 -214z" />
    <glyph glyph-name="comma.001" horiz-adv-x="600" 
d="M115 -289q51 118 90.5 276.5t48.5 274.5h229q-16 -135 -80.5 -293t-128.5 -258h-159z" />
    <glyph glyph-name="exclamdown.case" horiz-adv-x="653" 
d="M184 1303q0 60 41 100.5t101 40.5t101.5 -40.5t41.5 -100.5t-41.5 -102t-101.5 -42t-101 42t-41 102zM219 0l39 997h137l37 -997h-213z" />
    <glyph glyph-name="questiondown.case" horiz-adv-x="995" 
d="M72 362q0 214 209 347l114 73q48 31 67 72.5t19 103.5v39h176v-71q0 -102 -39 -170.5t-131 -128.5l-110 -72q-109 -71 -109 -193q0 -92 76.5 -154.5t206.5 -62.5q180 0 373 99v-191q-176 -84 -373 -84q-223 0 -351 113t-128 280zM426 1303q0 60 41.5 100.5t101.5 40.5
t101 -40.5t41 -100.5t-41 -102t-101 -42t-101.5 42t-41.5 102z" />
    <glyph glyph-name="periodcentered.case" horiz-adv-x="571" 
d="M143 725q0 60 41 101.5t101 41.5t101.5 -41.5t41.5 -101.5t-41.5 -100.5t-101.5 -40.5t-101 40.5t-41 100.5z" />
    <glyph glyph-name="bullet.case" horiz-adv-x="1069" 
d="M184 745q0 146 103 249.5t248 103.5t247.5 -103.5t102.5 -249.5q0 -143 -103 -246.5t-247 -103.5t-247.5 103.5t-103.5 246.5z" />
    <glyph glyph-name="parenleft.case" horiz-adv-x="802" 
d="M113 692q0 283 106 536t289 443l131 -102q-161 -181 -249.5 -403t-88.5 -474t88.5 -474.5t249.5 -401.5l-131 -103q-183 190 -289 443t-106 536z" />
    <glyph glyph-name="parenright.case" horiz-adv-x="802" 
d="M164 -184q161 179 249.5 401.5t88.5 474.5t-88.5 474t-249.5 403l131 102q183 -190 289 -443t106 -536t-106 -536t-289 -443z" />
    <glyph glyph-name="braceleft.case" horiz-adv-x="876" 
d="M113 625v176q204 0 204 207v241q0 168 75 264.5t233 96.5h88v-154h-68q-82 0 -121 -48t-39 -146v-297q0 -103 -51 -168t-149 -84q98 -19 149 -84t51 -168v-297q0 -98 39 -146.5t121 -48.5h68v-153h-88q-158 0 -233 96t-75 264v242q0 207 -204 207z" />
    <glyph glyph-name="braceright.case" horiz-adv-x="876" 
d="M164 -31h67q82 0 121 48.5t39 146.5v297q0 103 51.5 168t149.5 84q-98 19 -149.5 84t-51.5 168v297q0 98 -39 146t-121 48h-67v154h88q158 0 232.5 -96.5t74.5 -264.5v-241q0 -207 205 -207v-176q-205 0 -205 -207v-242q0 -168 -74.5 -264t-232.5 -96h-88v153z" />
    <glyph glyph-name="bracketleft.case" horiz-adv-x="671" 
d="M113 -184v1794h395v-154h-227v-1487h227v-153h-395z" />
    <glyph glyph-name="bracketright.case" horiz-adv-x="671" 
d="M164 -31h227v1487h-227v154h395v-1794h-395v153z" />
    <glyph glyph-name="hyphen.case" horiz-adv-x="759" 
d="M92 639v168h576v-168h-576z" />
    <glyph glyph-name="endash.case" horiz-adv-x="1294" 
d="M113 639v168h1069v-168h-1069z" />
    <glyph glyph-name="emdash.case" horiz-adv-x="2238" 
d="M133 639v168h1972v-168h-1972z" />
    <glyph glyph-name="guillemotleft.case" horiz-adv-x="1093" 
d="M61 748l351 391h170l-279 -391l279 -392h-170zM471 748l350 391h170l-278 -391l278 -392h-170z" />
    <glyph glyph-name="guillemotright.case" horiz-adv-x="1093" 
d="M102 356l279 392l-279 391h170l351 -391l-351 -392h-170zM512 356l279 392l-279 391h170l350 -391l-350 -392h-170z" />
    <glyph glyph-name="guilsinglleft.case" horiz-adv-x="684" 
d="M61 748l351 391h170l-279 -391l279 -392h-170z" />
    <glyph glyph-name="guilsinglright.case" horiz-adv-x="684" 
d="M102 356l279 392l-279 391h170l351 -391l-351 -392h-170z" />
    <glyph glyph-name="arrowright.ss01" horiz-adv-x="2686" 
d="M82 580v368h1835l-436 445h506l618 -629l-618 -629h-506l436 445h-1835z" />
    <glyph glyph-name="arrowleft.ss01" horiz-adv-x="2686" 
d="M82 764l618 629h506l-436 -445h1835v-368h-1835l436 -445h-506z" />
    <glyph glyph-name="arrowright.ss02" horiz-adv-x="4540" 
d="M82 602v197h219l-215 198h168l215 -198h92l-215 198h168l215 -198h92l-215 198h168l215 -198h2669l-164 198l964 -288l-964 -306l162 199h-2667l-215 -199h-168l215 199h-92l-215 -199h-168l215 199h-92l-215 -199h-168l215 199h-219z" />
    <glyph glyph-name="arrowleft.ss02" horiz-adv-x="4540" 
d="M82 709l965 288l-164 -198h2668l215 198h168l-215 -198h92l215 198h168l-215 -198h92l215 198h168l-215 -198h219v-197h-219l215 -199h-168l-215 199h-92l215 -199h-168l-215 199h-92l215 -199h-168l-215 199h-2666l162 -199z" />
    <glyph glyph-name="arrowright.ss03" horiz-adv-x="4288" 
d="M82 438v783h12q6 -10 17.5 -27.5t53.5 -61t91 -77t129.5 -61t169.5 -27.5l2607 6l-340 430l8 12l1377 -586l-1377 -585l-8 12l340 430l-2607 6q-89 0 -169 -26t-131 -63.5t-89.5 -75t-55.5 -63.5l-16 -26h-12z" />
    <glyph glyph-name="arrowleft.ss03" horiz-adv-x="4288" 
d="M82 829l1376 586l8 -12l-340 -430l2608 -6q65 0 125 14t105 36.5t84 49.5t65 54t45 49.5t28 36.5l8 14h13v-783h-13q-6 10 -17.5 27.5t-53 61t-90.5 77t-129.5 61t-169.5 27.5l-2608 -6l340 -430l-8 -12z" />
    <glyph glyph-name="at.case" horiz-adv-x="1712" 
d="M92 707q0 174 63.5 324.5t171.5 254t253.5 162.5t306.5 59q154 0 290 -51t233 -139.5t153.5 -213t56.5 -265.5q0 -228 -107.5 -380.5t-267.5 -152.5q-143 0 -194 111q-133 -119 -293 -119q-136 0 -217 91.5t-86 234.5q0 137 52 252t149.5 184t220.5 69q72 0 131.5 -30.5
t89.5 -75.5l14 80h145l-79 -504q-12 -85 5 -128.5t77 -43.5q92 0 157.5 123t65.5 287q0 154 -73.5 277t-209.5 194t-311 71q-136 0 -256 -49t-206.5 -136.5t-136.5 -213.5t-50 -274q0 -186 79 -336.5t233.5 -241t358.5 -90.5q217 0 373 76v-142q-167 -63 -373 -63
q-177 0 -329.5 60t-260 165t-168.5 253.5t-61 320.5zM610 627q0 -92 48 -141.5t139 -49.5q129 0 229 129l47 297q-23 57 -71.5 92t-116.5 35q-123 0 -199 -105.5t-76 -256.5z" />
    <glyph glyph-name="ampersand.ss01" horiz-adv-x="1554" 
d="M184 406q0 115 54.5 202t144.5 142q-162 114 -162 305q0 186 131.5 297.5t366.5 111.5q97 0 195.5 -23.5t170.5 -60.5v-192q-82 46 -182 74t-184 28q-140 0 -220.5 -64.5t-80.5 -166.5q0 -122 81 -180t206 -58h333v154l185 82v-236h239v-157h-239v-394q0 -135 147 -135
q49 0 92 15v-160q-56 -21 -147 -21q-74 0 -135.5 30.5t-96.5 84.5q-69 -48 -172.5 -81.5t-210.5 -33.5q-124 0 -223.5 34t-162.5 94t-96.5 138.5t-33.5 170.5zM387 406q0 -114 81 -188.5t232 -74.5q85 0 175.5 28t162.5 75v418h-364q-53 0 -103 -16t-91.5 -46.5t-67 -81.5
t-25.5 -114z" />
    <glyph glyph-name="caron.Slovak" horiz-adv-x="419" 
d="M82 1083l35 351h221l-115 -351h-141z" />
    </font>
</defs>
</svg>
